<?xml version="1.0" standalone="no"?>
<!DOCTYPE svg PUBLIC "-//W3C//DTD SVG 20010904//EN"
 "http://www.w3.org/TR/2001/REC-SVG-20010904/DTD/svg10.dtd">
<svg version="1.0" xmlns="http://www.w3.org/2000/svg"
 width="2084.000000pt" height="2084.000000pt" viewBox="0 0 2084.000000 2084.000000"
 preserveAspectRatio="xMidYMid meet">
<metadata>
Created by potrace 1.14, written by Peter Selinger 2001-2017
</metadata>
<g transform="translate(0.000000,2084.000000) scale(0.100000,-0.100000)"
fill="#000000" stroke="none">
<path d="M0 10420 l0 -10420 10420 0 10420 0 0 10420 0 10420 -10420 0 -10420
0 0 -10420z m14505 5754 c39 -3 90 -6 115 -7 25 -2 53 -7 63 -11 9 -5 29 -5
43 -2 15 4 32 2 40 -5 7 -6 25 -8 38 -5 14 3 28 1 32 -5 3 -6 19 -9 35 -5 15
3 31 1 35 -5 3 -6 19 -7 35 -4 19 4 29 3 29 -5 0 -8 10 -9 30 -5 20 4 30 3 30
-5 0 -8 9 -10 24 -6 14 3 28 1 31 -4 4 -6 15 -8 25 -5 10 3 21 1 25 -5 4 -6
15 -8 25 -5 10 3 21 1 25 -5 4 -6 15 -8 26 -5 11 4 19 2 19 -5 0 -8 9 -10 25
-6 15 4 25 2 25 -4 0 -7 8 -9 20 -5 12 4 20 2 20 -5 0 -7 8 -9 20 -5 12 4 20
2 20 -5 0 -7 8 -9 20 -5 12 4 20 2 20 -5 0 -7 8 -9 20 -5 12 4 20 2 20 -5 0
-7 8 -9 20 -5 12 4 20 2 20 -5 0 -7 8 -9 20 -5 11 4 20 2 20 -4 0 -6 7 -8 15
-5 8 4 15 1 15 -6 0 -7 8 -9 20 -5 11 4 20 2 20 -4 0 -6 7 -8 15 -5 8 4 15 1
15 -6 0 -7 7 -10 15 -6 8 3 15 1 15 -5 0 -6 9 -8 20 -4 11 4 20 2 20 -4 0 -6
7 -8 15 -5 8 4 15 1 15 -5 0 -6 7 -8 15 -5 8 4 15 1 15 -5 0 -6 7 -8 15 -5 8
4 15 1 15 -5 0 -6 7 -8 15 -5 8 4 15 1 15 -5 0 -6 7 -8 15 -5 8 4 15 1 15 -5
0 -6 7 -8 15 -5 8 4 15 1 15 -6 0 -6 5 -8 10 -5 6 3 10 1 10 -5 0 -7 7 -10 15
-6 8 3 15 1 15 -5 0 -6 7 -9 15 -5 8 3 15 1 15 -4 0 -5 7 -6 17 -3 12 5 14 3
8 -7 -6 -10 -4 -12 8 -7 10 3 17 2 17 -3 0 -5 7 -7 15 -4 8 4 15 1 15 -6 0 -6
5 -8 10 -5 6 3 10 1 10 -5 0 -7 7 -10 15 -6 8 3 15 1 15 -5 0 -6 5 -7 10 -4 6
3 10 1 10 -5 0 -7 7 -10 15 -6 8 3 15 1 15 -5 0 -6 5 -7 10 -4 6 3 10 2 10 -4
0 -6 7 -7 17 -4 12 5 14 3 8 -7 -6 -10 -4 -12 8 -7 10 3 17 2 17 -4 0 -6 5 -7
10 -4 6 3 10 1 10 -5 0 -6 5 -8 10 -5 6 3 10 1 10 -5 0 -7 7 -10 15 -6 8 3 15
1 15 -5 0 -6 5 -7 10 -4 6 3 10 1 10 -5 0 -6 5 -8 10 -5 6 3 10 1 10 -5 0 -6
5 -8 10 -5 6 3 10 1 10 -5 0 -6 5 -8 10 -5 6 3 10 1 10 -5 0 -7 7 -9 16 -6 10
4 13 2 8 -6 -5 -8 -2 -9 10 -5 9 4 15 3 12 -2 -7 -11 22 -23 35 -15 5 3 9 0 9
-6 0 -6 5 -8 10 -5 6 3 10 1 10 -5 0 -6 5 -8 10 -5 6 3 10 1 10 -5 0 -6 5 -8
10 -5 6 3 10 1 10 -5 0 -6 5 -8 10 -5 6 3 10 2 10 -4 0 -6 14 -18 31 -27 23
-11 29 -12 24 -2 -3 7 0 5 8 -4 8 -10 17 -15 20 -11 4 3 7 1 7 -6 0 -7 5 -9
10 -6 6 3 10 1 10 -5 0 -6 5 -8 10 -5 6 3 10 1 10 -6 0 -7 3 -9 7 -6 3 4 12
-1 20 -11 10 -11 12 -12 8 -2 -4 10 -2 9 8 -2 8 -10 17 -15 20 -11 4 3 7 0 7
-7 0 -7 3 -10 7 -7 3 4 12 -1 20 -11 10 -11 12 -12 8 -2 -4 8 1 6 9 -4 9 -11
16 -16 16 -11 0 5 6 1 13 -8 6 -9 19 -17 27 -19 8 -2 19 -8 25 -15 5 -7 17
-13 25 -15 8 -2 21 -10 28 -18 12 -13 13 -13 7 0 -4 8 1 6 9 -4 9 -11 16 -16
16 -11 0 5 7 0 15 -11 8 -10 15 -15 15 -10 0 6 7 1 16 -10 8 -10 13 -12 9 -4
-4 8 3 4 15 -10 12 -14 19 -18 15 -10 -4 8 3 4 15 -10 12 -14 19 -18 15 -10
-4 8 3 4 15 -10 12 -14 19 -18 15 -10 -4 8 3 4 15 -10 12 -14 19 -18 15 -10
-4 8 1 6 10 -5 9 -11 20 -20 25 -20 5 0 16 -9 25 -20 9 -11 14 -13 10 -5 -4 8
3 4 15 -10 12 -14 19 -18 15 -10 -3 8 6 2 20 -15 15 -16 24 -23 20 -15 -4 8 5
2 20 -15 14 -16 23 -23 20 -15 -4 8 5 2 20 -15 14 -16 23 -23 20 -15 -4 8 6 1
22 -15 15 -17 24 -24 19 -15 -5 8 8 -3 29 -25 20 -22 32 -31 25 -20 -7 11 4 2
25 -20 20 -22 32 -31 25 -20 -7 11 7 -1 31 -26 24 -25 40 -38 34 -29 -5 9 10
-5 35 -30 25 -25 39 -37 31 -26 -8 12 19 -13 60 -55 41 -41 63 -61 49 -44 -14
17 13 -8 60 -56 47 -48 124 -124 171 -170 47 -46 71 -73 54 -59 -17 14 3 -8
44 -49 42 -41 67 -68 55 -60 -11 8 1 -6 26 -31 25 -25 39 -40 30 -35 -9 6 4
-10 29 -34 25 -24 37 -38 26 -31 -11 7 -2 -4 20 -25 22 -20 33 -33 25 -29 -9
5 -2 -4 15 -19 16 -16 23 -26 15 -22 -8 4 -1 -6 15 -22 17 -15 26 -26 20 -23
-6 3 3 -8 20 -23 16 -16 23 -26 15 -22 -8 4 -1 -5 15 -20 17 -14 23 -23 15
-20 -8 4 -4 -3 10 -15 14 -12 18 -19 10 -15 -8 3 -1 -6 15 -20 17 -15 23 -24
15 -20 -8 4 -4 -3 10 -15 14 -12 18 -19 10 -15 -8 4 -4 -3 10 -15 14 -12 18
-19 10 -15 -8 4 -5 -2 7 -13 12 -11 19 -22 16 -26 -3 -3 2 -8 11 -12 9 -3 13
-10 10 -15 -3 -5 2 -12 10 -15 9 -3 14 -10 11 -14 -3 -5 3 -13 12 -19 10 -6
14 -11 9 -11 -6 0 -1 -7 10 -16 10 -8 12 -13 4 -9 -8 4 -4 -3 10 -15 14 -12
18 -19 10 -15 -13 6 -13 5 0 -7 8 -7 16 -20 18 -28 2 -8 8 -20 15 -25 7 -6 13
-17 15 -25 2 -8 8 -20 15 -25 7 -6 13 -17 15 -25 2 -8 10 -21 19 -27 9 -7 13
-13 8 -13 -5 0 0 -7 11 -16 10 -8 13 -12 6 -9 -11 6 -12 3 -3 -14 7 -11 16
-21 22 -21 6 0 7 -4 4 -10 -3 -5 -1 -10 6 -10 7 0 9 -3 6 -7 -4 -3 1 -12 11
-20 9 -8 11 -11 4 -8 -10 5 -9 -1 2 -24 9 -17 21 -31 27 -31 6 0 7 -4 4 -10
-3 -5 -1 -10 5 -10 6 0 8 -4 5 -10 -3 -5 -1 -10 5 -10 6 0 8 -4 5 -10 -3 -5
-1 -10 5 -10 6 0 8 -4 5 -10 -3 -5 -1 -10 5 -10 6 0 8 -4 5 -10 -3 -5 -1 -10
5 -10 6 0 8 -4 5 -10 -3 -5 -1 -10 5 -10 6 0 8 -4 5 -10 -3 -5 -1 -10 5 -10 6
0 8 -4 5 -10 -3 -5 -1 -10 5 -10 6 0 8 -4 5 -10 -3 -5 -1 -10 5 -10 6 0 8 -4
5 -10 -3 -5 -1 -10 5 -10 6 0 9 -4 6 -9 -9 -14 5 -42 17 -34 6 4 8 0 4 -10 -3
-10 -2 -17 4 -17 6 0 7 -4 4 -10 -3 -5 -1 -10 5 -10 6 0 8 -4 5 -10 -3 -5 -1
-10 5 -10 6 0 8 -5 4 -11 -4 -7 4 -20 17 -31 13 -11 17 -17 9 -13 -8 4 -6 -1
5 -10 11 -9 20 -20 20 -25 0 -5 9 -16 20 -25 11 -9 13 -14 5 -10 -8 4 -4 -3
10 -15 14 -12 18 -19 10 -15 -8 4 -4 -3 10 -15 14 -12 18 -19 10 -15 -8 4 -4
-3 10 -15 14 -12 18 -19 10 -15 -8 4 -4 -3 10 -15 14 -12 18 -19 10 -15 -8 4
-4 -3 10 -15 14 -12 18 -19 10 -15 -8 4 -4 -3 10 -15 14 -12 18 -19 10 -15
-13 6 -13 5 0 -7 8 -7 16 -20 18 -28 2 -8 13 -23 25 -33 12 -10 15 -16 7 -12
-8 4 -6 -1 4 -9 11 -9 16 -16 11 -16 -5 0 0 -7 11 -16 10 -8 12 -13 4 -9 -8 4
-6 -1 4 -9 11 -9 16 -16 11 -16 -5 0 0 -7 11 -16 10 -8 13 -12 6 -9 -11 6 -12
3 -3 -14 7 -11 17 -21 23 -21 6 0 8 -3 5 -7 -4 -3 1 -12 11 -20 9 -8 11 -11 4
-8 -11 6 -12 3 -3 -14 7 -11 16 -21 22 -21 6 0 7 -4 4 -10 -3 -5 -1 -10 5 -10
6 0 8 -4 5 -10 -3 -5 -1 -10 6 -10 7 0 9 -3 6 -7 -4 -3 1 -12 11 -20 9 -8 11
-11 4 -8 -10 5 -9 -1 2 -24 9 -17 21 -31 27 -31 6 0 7 -4 4 -10 -3 -5 -1 -10
5 -10 6 0 8 -4 5 -10 -3 -5 -1 -10 5 -10 6 0 8 -4 5 -10 -3 -5 -1 -10 5 -10 6
0 8 -4 5 -10 -3 -5 -1 -10 5 -10 6 0 8 -4 5 -10 -3 -5 -1 -10 5 -10 6 0 8 -4
5 -10 -3 -5 -1 -10 5 -10 6 0 9 -4 6 -9 -8 -13 4 -42 15 -35 5 3 6 -2 3 -10
-3 -9 -1 -16 6 -16 6 0 8 -4 5 -10 -3 -5 -1 -10 5 -10 6 0 8 -4 5 -10 -3 -5
-1 -10 5 -10 6 0 8 -4 5 -10 -3 -5 -2 -10 4 -10 6 0 7 -7 4 -17 -4 -11 -3 -14
5 -9 8 5 10 2 6 -8 -3 -9 -1 -16 6 -16 6 0 8 -4 5 -10 -3 -5 -1 -10 5 -10 6 0
8 -4 5 -10 -3 -5 -2 -10 4 -10 6 0 8 -7 5 -15 -4 -8 -1 -15 6 -15 6 0 8 -4 5
-10 -3 -5 -2 -10 4 -10 6 0 7 -7 4 -17 -5 -12 -3 -14 7 -8 10 6 12 4 7 -8 -3
-10 -2 -17 3 -17 5 0 6 -7 3 -17 -5 -12 -3 -14 7 -8 10 6 12 4 7 -8 -3 -10 -2
-17 3 -17 5 0 7 -7 4 -15 -4 -8 -1 -15 6 -15 6 0 8 -4 5 -10 -3 -5 -1 -10 5
-10 7 0 10 -7 6 -15 -3 -8 -1 -15 4 -15 5 0 7 -7 4 -15 -4 -8 -1 -15 6 -15 6
0 8 -4 5 -10 -3 -5 -1 -10 5 -10 7 0 10 -7 6 -15 -3 -8 -1 -15 5 -15 6 0 9 -7
5 -15 -3 -8 -1 -15 4 -15 5 0 7 -7 4 -15 -4 -8 -1 -15 5 -15 6 0 8 -7 5 -15
-4 -8 -1 -15 5 -15 6 0 8 -7 5 -15 -4 -8 -1 -15 5 -15 6 0 8 -7 5 -15 -4 -8
-1 -15 6 -15 7 0 10 -7 6 -15 -3 -8 -1 -15 5 -15 6 0 9 -7 5 -15 -3 -8 -1 -15
5 -15 6 0 8 -9 4 -20 -4 -11 -2 -20 4 -20 6 0 8 -7 5 -15 -4 -8 -1 -15 6 -15
7 0 9 -8 5 -20 -4 -11 -2 -20 4 -20 6 0 8 -7 5 -15 -4 -8 -1 -15 6 -15 7 0 9
-8 5 -20 -4 -12 -2 -20 5 -20 7 0 9 -8 5 -20 -4 -12 -2 -20 5 -20 7 0 9 -8 5
-20 -4 -12 -2 -20 5 -20 7 0 9 -8 5 -20 -4 -12 -2 -20 5 -20 7 0 9 -8 5 -20
-4 -12 -2 -20 5 -20 7 0 9 -8 5 -19 -3 -11 -2 -22 4 -25 5 -3 7 -15 4 -26 -3
-11 0 -20 6 -20 7 0 9 -9 5 -25 -4 -16 -2 -25 5 -25 7 0 9 -9 5 -25 -4 -16 -2
-25 5 -25 7 0 9 -9 5 -25 -4 -16 -2 -25 6 -25 8 0 10 -9 6 -24 -3 -14 -2 -28
4 -31 6 -3 7 -17 4 -30 -3 -12 -1 -26 6 -30 7 -4 9 -18 5 -35 -3 -16 -2 -31 4
-35 6 -3 8 -17 5 -31 -3 -13 -1 -31 5 -38 7 -8 9 -25 5 -39 -3 -14 -2 -32 3
-39 4 -7 9 -31 10 -53 1 -22 4 -65 7 -95 25 -274 21 -783 -10 -1060 -2 -25 -6
-61 -7 -80 -1 -19 -6 -41 -10 -48 -5 -7 -5 -21 -2 -33 4 -11 1 -26 -5 -34 -6
-8 -9 -23 -5 -34 3 -10 1 -22 -5 -26 -7 -4 -9 -19 -5 -36 4 -19 3 -29 -5 -29
-8 0 -10 -9 -6 -24 3 -14 1 -28 -5 -31 -6 -4 -8 -18 -5 -31 4 -15 2 -24 -5
-24 -7 0 -9 -9 -5 -25 4 -16 2 -25 -5 -25 -6 0 -9 -9 -6 -20 3 -11 1 -23 -4
-26 -6 -3 -7 -14 -4 -25 4 -11 2 -19 -5 -19 -8 0 -10 -9 -6 -25 4 -15 2 -25
-4 -25 -7 0 -9 -8 -5 -20 4 -12 2 -20 -5 -20 -7 0 -9 -8 -5 -20 4 -12 2 -20
-5 -20 -7 0 -9 -8 -5 -20 4 -12 2 -20 -5 -20 -7 0 -9 -8 -5 -20 4 -12 2 -20
-5 -20 -7 0 -10 -7 -7 -15 4 -8 2 -17 -3 -20 -5 -3 -7 -12 -3 -20 3 -8 0 -15
-7 -15 -7 0 -9 -8 -5 -20 4 -11 2 -20 -4 -20 -6 0 -8 -7 -5 -15 4 -8 1 -15 -6
-15 -7 0 -10 -7 -6 -15 3 -8 1 -15 -5 -15 -6 0 -8 -9 -4 -20 4 -11 2 -20 -4
-20 -6 0 -8 -7 -5 -15 4 -8 1 -15 -5 -15 -6 0 -8 -7 -5 -15 4 -8 1 -15 -5 -15
-6 0 -8 -7 -5 -15 4 -8 1 -15 -5 -15 -6 0 -8 -7 -5 -15 4 -8 1 -15 -5 -15 -6
0 -8 -7 -5 -15 4 -8 1 -15 -5 -15 -6 0 -8 -7 -5 -15 4 -8 1 -15 -5 -15 -6 0
-8 -7 -5 -15 4 -8 1 -15 -6 -15 -6 0 -8 -5 -5 -10 3 -6 1 -10 -5 -10 -7 0 -10
-7 -6 -15 3 -8 1 -15 -4 -15 -5 0 -7 -7 -4 -15 4 -8 1 -15 -6 -15 -6 0 -8 -4
-5 -10 3 -5 1 -10 -5 -10 -7 0 -10 -7 -6 -15 3 -8 1 -15 -4 -15 -5 0 -7 -7 -4
-15 4 -8 1 -15 -6 -15 -6 0 -8 -4 -5 -10 3 -6 2 -10 -4 -10 -6 0 -8 -7 -5 -15
4 -8 1 -15 -6 -15 -6 0 -8 -4 -5 -10 3 -6 1 -10 -5 -10 -6 0 -8 -5 -5 -10 3
-6 1 -10 -5 -10 -7 0 -10 -7 -6 -15 3 -8 1 -15 -5 -15 -6 0 -7 -4 -4 -10 3 -6
2 -10 -4 -10 -6 0 -7 -7 -4 -17 5 -12 3 -14 -7 -8 -10 6 -12 4 -7 -8 3 -10 2
-17 -4 -17 -6 0 -7 -4 -4 -10 3 -5 1 -10 -5 -10 -6 0 -8 -4 -5 -10 3 -5 2 -10
-4 -10 -6 0 -7 -7 -4 -17 4 -10 2 -14 -4 -10 -12 8 -26 -20 -17 -34 3 -5 0 -9
-6 -9 -6 0 -8 -4 -5 -10 3 -5 1 -10 -5 -10 -6 0 -8 -4 -5 -10 3 -5 1 -10 -5
-10 -6 0 -8 -4 -5 -10 3 -5 1 -10 -5 -10 -6 0 -8 -5 -5 -10 3 -6 1 -10 -5 -10
-6 0 -8 -4 -5 -10 3 -5 1 -10 -5 -10 -6 0 -8 -4 -5 -10 3 -5 1 -10 -5 -10 -6
0 -8 -4 -5 -10 3 -5 1 -10 -5 -10 -6 0 -8 -4 -5 -10 3 -5 1 -10 -5 -10 -6 0
-8 -4 -5 -10 3 -5 1 -10 -5 -10 -6 0 -8 -4 -5 -10 3 -5 1 -10 -5 -10 -6 0 -8
-4 -5 -10 3 -6 1 -10 -5 -10 -6 0 -8 -4 -5 -10 3 -6 2 -10 -4 -10 -6 0 -15
-10 -22 -21 -9 -17 -8 -20 3 -14 7 3 5 0 -4 -8 -10 -8 -15 -17 -11 -20 3 -4 1
-7 -6 -7 -7 0 -9 -4 -6 -10 3 -5 2 -10 -4 -10 -6 0 -15 -10 -22 -21 -9 -17 -8
-20 3 -14 7 3 4 -1 -6 -9 -11 -9 -17 -16 -13 -16 4 0 -2 -9 -13 -20 -12 -12
-18 -25 -15 -30 4 -6 1 -10 -6 -10 -7 0 -9 -3 -6 -7 4 -3 -1 -12 -11 -20 -11
-10 -12 -12 -2 -8 8 4 5 -2 -7 -12 -12 -10 -23 -25 -25 -33 -2 -8 -10 -21 -18
-28 -13 -12 -13 -13 0 -7 8 4 4 -3 -10 -15 -14 -12 -18 -19 -10 -15 8 4 6 -1
-4 -9 -11 -9 -16 -16 -11 -16 5 0 0 -7 -11 -15 -10 -8 -15 -15 -10 -15 6 0 1
-7 -10 -16 -10 -8 -12 -13 -4 -9 8 4 4 -3 -10 -14 -14 -11 -20 -21 -15 -21 6
0 3 -5 -5 -10 -8 -5 -15 -14 -15 -19 0 -6 -9 -17 -20 -26 -11 -9 -13 -14 -5
-10 8 4 4 -3 -10 -15 -14 -12 -18 -19 -10 -15 8 4 2 -5 -15 -20 -16 -14 -23
-23 -15 -20 8 4 4 -3 -10 -15 -14 -12 -18 -19 -10 -15 8 3 2 -6 -15 -20 -16
-15 -23 -24 -15 -20 8 3 2 -6 -15 -20 -16 -15 -23 -24 -15 -20 8 4 1 -6 -15
-22 -17 -15 -24 -24 -15 -19 8 5 -3 -8 -25 -29 -22 -20 -31 -32 -20 -25 11 7
2 -4 -20 -25 -22 -20 -31 -32 -20 -25 11 7 0 -7 -25 -30 -25 -23 -36 -37 -25
-30 11 7 -3 -9 -31 -36 -28 -27 -41 -42 -29 -34 11 8 -9 -14 -45 -50 -37 -36
-55 -56 -40 -45 15 11 -16 -21 -68 -71 -53 -50 -136 -133 -186 -186 -50 -52
-82 -83 -71 -68 11 15 -11 -5 -49 -44 -38 -39 -63 -62 -55 -50 8 11 -6 -1 -31
-26 -25 -25 -40 -39 -35 -30 6 9 -8 -2 -29 -24 -22 -23 -34 -32 -26 -21 7 11
-4 2 -25 -20 -20 -22 -34 -33 -30 -25 4 8 -6 1 -22 -15 -15 -17 -24 -24 -19
-15 4 8 -6 -1 -24 -20 -18 -19 -29 -28 -26 -20 4 8 -5 2 -19 -15 -15 -16 -24
-23 -20 -15 3 8 -6 2 -20 -15 -15 -16 -24 -23 -20 -15 3 8 -6 2 -20 -15 -15
-16 -24 -23 -20 -15 4 8 -3 4 -15 -10 -12 -14 -19 -18 -15 -10 3 8 -6 2 -20
-15 -15 -16 -24 -23 -20 -15 4 8 -3 4 -15 -10 -12 -14 -19 -18 -15 -10 4 8 -3
4 -15 -10 -12 -14 -19 -18 -15 -10 4 8 -3 4 -15 -10 -12 -14 -19 -18 -15 -10
4 8 -3 4 -15 -10 -12 -14 -19 -18 -15 -10 4 8 -3 4 -15 -10 -12 -14 -19 -18
-15 -10 4 8 -1 6 -9 -4 -9 -11 -16 -16 -16 -10 0 5 -7 0 -15 -10 -8 -11 -15
-16 -15 -11 0 5 -7 0 -16 -11 -8 -10 -13 -12 -9 -4 6 13 5 13 -7 0 -7 -8 -20
-16 -28 -18 -8 -2 -20 -8 -25 -15 -6 -7 -17 -13 -25 -15 -8 -2 -21 -10 -27
-19 -7 -9 -13 -13 -13 -8 0 5 -7 0 -16 -11 -8 -10 -13 -12 -9 -4 4 10 2 9 -8
-2 -8 -10 -17 -15 -20 -11 -4 3 -7 0 -7 -7 0 -7 -3 -10 -7 -7 -3 4 -12 -1 -20
-11 -8 -9 -11 -11 -8 -4 6 11 3 12 -14 3 -11 -7 -21 -16 -21 -22 0 -6 -4 -7
-10 -4 -5 3 -10 1 -10 -5 0 -6 -4 -8 -10 -5 -5 3 -10 1 -10 -5 0 -6 -4 -8 -10
-5 -5 3 -10 1 -10 -6 0 -7 -3 -9 -7 -6 -3 4 -12 -1 -20 -11 -8 -9 -12 -11 -8
-4 5 10 1 10 -19 1 -14 -7 -23 -16 -20 -20 3 -5 -3 -6 -12 -2 -12 4 -15 3 -10
-5 5 -8 1 -10 -10 -5 -12 4 -15 3 -10 -5 5 -8 1 -10 -10 -5 -13 5 -15 3 -9 -7
5 -8 4 -11 -3 -7 -15 10 -43 -3 -35 -16 4 -6 0 -8 -10 -4 -10 3 -17 2 -17 -4
0 -6 -4 -7 -10 -4 -5 3 -10 1 -10 -5 0 -6 -4 -8 -10 -5 -5 3 -10 1 -10 -5 0
-6 -4 -8 -10 -5 -5 3 -10 1 -10 -5 0 -6 -4 -8 -10 -5 -5 3 -10 2 -10 -4 0 -6
-7 -7 -17 -4 -11 4 -14 3 -9 -5 5 -8 2 -10 -8 -6 -9 3 -16 1 -16 -6 0 -6 -4
-8 -10 -5 -5 3 -10 1 -10 -5 0 -6 -4 -8 -10 -5 -5 3 -10 2 -10 -4 0 -6 -7 -8
-15 -5 -8 4 -15 1 -15 -6 0 -6 -4 -8 -10 -5 -5 3 -10 1 -10 -5 0 -6 -4 -8 -10
-5 -5 3 -10 2 -10 -4 0 -6 -7 -8 -15 -5 -8 4 -15 1 -15 -6 0 -6 -4 -8 -10 -5
-5 3 -10 2 -10 -4 0 -6 -7 -8 -15 -5 -8 4 -15 1 -15 -6 0 -6 -4 -8 -10 -5 -5
3 -10 2 -10 -4 0 -6 -7 -8 -15 -5 -8 4 -15 1 -15 -6 0 -6 -4 -8 -10 -5 -5 3
-10 1 -10 -5 0 -7 -7 -10 -15 -6 -8 3 -15 1 -15 -4 0 -5 -7 -7 -15 -4 -8 4
-15 1 -15 -5 0 -6 -7 -8 -17 -4 -12 5 -14 3 -8 -7 6 -10 4 -12 -8 -7 -10 4
-17 2 -17 -4 0 -6 -7 -9 -15 -5 -8 3 -15 1 -15 -5 0 -6 -7 -9 -15 -5 -8 3 -15
1 -15 -4 0 -5 -7 -7 -15 -4 -8 4 -15 1 -15 -5 0 -6 -7 -8 -15 -5 -8 4 -15 1
-15 -6 0 -7 -7 -10 -15 -6 -8 3 -15 1 -15 -5 0 -6 -7 -9 -15 -5 -8 3 -15 1
-15 -5 0 -6 -7 -9 -15 -5 -8 3 -15 1 -15 -5 0 -6 -9 -8 -20 -4 -11 4 -20 2
-20 -4 0 -6 -7 -8 -15 -5 -8 4 -15 1 -15 -6 0 -7 -7 -10 -15 -7 -8 4 -17 2
-20 -3 -3 -5 -12 -7 -20 -3 -8 3 -15 0 -15 -7 0 -7 -8 -9 -20 -5 -12 4 -20 2
-20 -5 0 -7 -7 -10 -15 -7 -8 4 -17 2 -20 -3 -3 -5 -12 -7 -20 -3 -8 3 -15 0
-15 -7 0 -7 -8 -9 -20 -5 -12 4 -20 2 -20 -5 0 -7 -8 -9 -19 -5 -11 3 -22 2
-25 -4 -3 -5 -15 -7 -26 -4 -12 3 -20 0 -20 -7 0 -7 -8 -9 -20 -5 -12 4 -20 2
-20 -5 0 -6 -10 -8 -25 -4 -16 4 -25 2 -25 -5 0 -7 -9 -9 -25 -5 -16 4 -25 2
-25 -5 0 -7 -9 -9 -25 -5 -16 4 -25 2 -25 -5 0 -7 -9 -9 -24 -5 -13 3 -27 1
-31 -5 -3 -6 -17 -8 -30 -5 -12 3 -26 1 -30 -5 -3 -6 -17 -8 -30 -5 -12 3 -26
1 -30 -5 -3 -6 -17 -8 -31 -5 -13 3 -30 1 -38 -5 -7 -6 -21 -9 -30 -5 -9 3
-24 3 -33 -2 -10 -4 -34 -9 -53 -11 -19 -1 -60 -5 -90 -7 -374 -36 -676 -36
-1050 0 -30 2 -71 6 -90 7 -19 1 -41 6 -48 10 -7 5 -25 6 -41 2 -17 -4 -32 -2
-36 5 -4 7 -19 9 -36 5 -19 -4 -29 -3 -29 5 0 8 -10 11 -30 7 -16 -4 -32 -2
-36 4 -3 6 -17 8 -30 5 -15 -4 -24 -2 -24 5 0 7 -9 9 -24 5 -14 -3 -28 -1 -31
4 -4 6 -15 8 -25 5 -10 -3 -21 -1 -25 5 -4 6 -15 8 -25 5 -10 -3 -21 -1 -25 5
-4 6 -15 8 -26 5 -11 -4 -19 -2 -19 5 0 8 -9 10 -25 6 -15 -4 -25 -2 -25 4 0
7 -8 9 -20 5 -12 -4 -20 -2 -20 5 0 7 -8 9 -20 5 -12 -4 -20 -2 -20 5 0 7 -8
9 -20 5 -12 -4 -20 -2 -20 5 0 7 -8 9 -20 5 -12 -4 -20 -2 -20 5 0 7 -8 9 -20
5 -12 -4 -20 -2 -20 5 0 7 -7 10 -15 7 -8 -4 -17 -2 -20 3 -3 5 -12 7 -20 3
-8 -3 -15 0 -15 7 0 7 -7 10 -15 7 -8 -4 -17 -2 -20 3 -3 5 -12 7 -20 3 -8 -3
-15 0 -15 7 0 7 -7 10 -15 6 -8 -3 -15 -1 -15 5 0 6 -7 9 -15 5 -8 -3 -15 -1
-15 5 0 6 -7 9 -15 6 -8 -4 -17 -2 -20 3 -3 5 -12 7 -20 3 -8 -3 -15 0 -15 6
0 6 -7 8 -15 5 -8 -4 -15 -1 -15 5 0 6 -7 8 -15 5 -8 -4 -15 -1 -15 6 0 6 -4
8 -10 5 -5 -3 -10 -1 -10 5 0 7 -7 10 -15 6 -8 -3 -15 -1 -15 5 0 6 -7 9 -15
5 -8 -3 -15 -1 -15 5 0 6 -7 9 -15 5 -8 -3 -15 -1 -15 4 0 5 -7 7 -15 4 -8 -4
-15 -1 -15 6 0 6 -4 8 -10 5 -5 -3 -10 -1 -10 5 0 7 -7 10 -15 6 -8 -3 -15 -1
-15 5 0 6 -4 7 -10 4 -5 -3 -10 -1 -10 5 0 7 -7 10 -15 6 -8 -3 -15 -1 -15 4
0 5 -7 6 -17 3 -12 -5 -14 -3 -8 7 6 10 4 12 -8 7 -10 -3 -17 -2 -17 4 0 6 -4
7 -10 4 -5 -3 -10 -1 -10 5 0 7 -7 10 -15 6 -8 -3 -15 -1 -15 5 0 6 -4 7 -10
4 -5 -3 -10 -2 -10 4 0 6 -7 7 -17 4 -12 -5 -14 -3 -8 7 6 10 4 12 -8 7 -10
-3 -17 -2 -17 4 0 6 -4 7 -10 4 -5 -3 -10 -1 -10 5 0 6 -4 8 -10 5 -5 -3 -10
-1 -10 5 0 7 -7 9 -16 6 -10 -4 -13 -2 -8 6 5 8 2 9 -9 5 -10 -3 -17 -2 -17 4
0 6 -4 7 -10 4 -5 -3 -10 -1 -10 5 0 6 -4 8 -10 5 -5 -3 -10 -1 -10 5 0 6 -4
8 -10 5 -5 -3 -10 -1 -10 5 0 6 -4 8 -10 5 -5 -3 -10 -1 -10 5 0 6 -4 8 -10 5
-5 -3 -10 -1 -10 5 0 6 -4 8 -10 5 -5 -3 -10 -1 -10 5 0 6 -4 8 -10 5 -5 -3
-10 -1 -10 5 0 6 -4 8 -10 5 -5 -3 -10 -1 -10 5 0 6 -4 8 -10 5 -5 -3 -10 -1
-10 5 0 6 -4 8 -10 5 -5 -3 -10 -1 -10 5 0 6 -4 8 -10 5 -5 -3 -10 -1 -10 5 0
6 -4 8 -10 5 -5 -3 -10 -1 -10 5 0 6 -4 8 -10 5 -5 -3 -10 -1 -10 5 0 6 -4 8
-10 5 -5 -3 -10 -1 -10 5 0 6 -4 8 -10 5 -5 -3 -10 -1 -10 6 0 7 -3 10 -6 6
-3 -3 -14 3 -25 14 -11 11 -24 17 -29 14 -6 -4 -10 -1 -10 5 0 6 -4 8 -10 5
-5 -3 -10 -1 -10 6 0 7 -3 9 -7 6 -3 -4 -12 1 -20 11 -10 11 -12 12 -8 2 4 -8
-1 -6 -9 4 -9 11 -16 16 -16 11 0 -5 -6 -1 -12 8 -7 9 -20 17 -28 19 -8 2 -19
8 -25 15 -5 7 -17 13 -25 15 -8 2 -21 10 -28 18 -12 13 -13 13 -7 0 4 -8 -1
-6 -9 4 -9 11 -16 16 -16 11 0 -5 -7 0 -16 11 -8 10 -13 12 -9 4 4 -8 -3 -4
-15 10 -12 14 -19 18 -15 10 4 -8 -3 -4 -15 10 -12 14 -19 18 -15 10 4 -8 -3
-4 -15 10 -12 14 -19 18 -15 10 4 -8 -3 -4 -15 10 -12 14 -19 18 -15 10 4 -8
-3 -4 -15 10 -12 14 -19 18 -15 10 4 -8 -3 -4 -15 10 -12 14 -19 18 -15 10 4
-8 -3 -4 -15 10 -12 14 -19 18 -15 10 4 -8 -5 -1 -20 15 -14 17 -23 23 -20 15
4 -8 -3 -4 -15 10 -12 14 -19 18 -15 10 3 -8 -6 -1 -20 15 -15 17 -24 23 -20
15 3 -8 -6 -1 -20 15 -15 17 -24 23 -20 15 4 -8 -6 -1 -22 15 -15 17 -26 26
-23 20 3 -6 -8 3 -23 20 -16 16 -26 23 -22 15 4 -8 -8 1 -25 20 -17 19 -29 28
-25 20 4 -8 -10 3 -30 25 -21 22 -32 31 -25 20 7 -11 -7 1 -31 26 -24 25 -39
38 -34 29 6 -9 -15 10 -45 40 -30 31 -48 47 -40 35 8 -12 -9 4 -37 34 -29 31
-53 52 -53 46 0 -5 -56 46 -124 114 -69 69 -124 128 -123 132 1 4 -21 29 -49
56 -28 26 -41 41 -29 33 12 -8 -4 9 -34 39 -31 29 -47 48 -36 41 11 -7 0 7
-25 31 -25 24 -39 40 -30 34 9 -5 -2 7 -25 29 -22 21 -31 33 -20 26 11 -7 2 5
-20 25 -22 21 -33 34 -25 29 9 -5 2 4 -15 19 -16 16 -23 26 -15 22 8 -3 2 6
-15 20 -16 15 -23 24 -15 20 8 -3 2 6 -15 20 -16 15 -23 24 -15 20 8 -3 2 6
-15 20 -16 15 -23 24 -15 20 8 -4 4 3 -10 15 -14 12 -18 19 -10 15 8 -3 2 6
-15 20 -16 15 -23 24 -15 20 8 -4 4 3 -10 15 -14 12 -18 19 -10 15 8 -4 4 3
-10 15 -14 12 -18 19 -10 15 8 -4 5 2 -7 13 -12 11 -19 22 -16 26 3 3 -2 8
-11 12 -9 3 -13 10 -10 15 3 5 -8 21 -23 36 -15 14 -21 23 -13 19 8 -4 4 2
-10 14 -14 12 -18 19 -10 15 9 -4 8 0 -3 8 -10 9 -18 18 -18 21 2 18 -1 21
-24 22 -14 1 -25 -2 -25 -7 0 -4 -7 -6 -15 -3 -8 4 -15 1 -15 -5 0 -6 -7 -8
-15 -5 -8 4 -15 1 -15 -5 0 -6 -7 -8 -15 -5 -8 4 -15 1 -15 -5 0 -6 -7 -8 -15
-5 -8 4 -15 1 -15 -6 0 -7 -7 -10 -15 -6 -8 3 -15 1 -15 -5 0 -6 -7 -9 -15 -5
-8 3 -15 1 -15 -5 0 -6 -7 -9 -15 -5 -8 3 -15 1 -15 -5 0 -6 -7 -9 -15 -5 -8
3 -15 1 -15 -5 0 -6 -7 -9 -15 -5 -8 3 -15 1 -15 -5 0 -6 -7 -9 -15 -5 -8 3
-15 1 -15 -5 0 -6 -7 -9 -15 -5 -8 3 -15 1 -15 -5 0 -6 -7 -9 -15 -5 -8 3 -15
1 -15 -5 0 -6 -7 -9 -15 -5 -8 3 -15 1 -15 -5 0 -6 -7 -9 -15 -5 -8 3 -15 1
-15 -5 0 -6 -9 -8 -20 -4 -11 4 -20 2 -20 -4 0 -6 -7 -8 -15 -5 -8 4 -15 1
-15 -5 0 -6 -7 -8 -15 -5 -8 4 -15 1 -15 -5 0 -6 -7 -8 -15 -5 -8 4 -15 1 -15
-5 0 -6 -7 -8 -15 -5 -8 4 -15 1 -15 -5 0 -6 -7 -8 -15 -5 -8 4 -15 1 -15 -5
0 -6 -7 -8 -15 -5 -8 4 -15 1 -15 -5 0 -6 -7 -8 -15 -5 -8 4 -15 1 -15 -5 0
-6 -7 -8 -15 -5 -8 4 -15 1 -15 -5 0 -6 -7 -8 -15 -5 -8 4 -15 1 -15 -5 0 -6
-7 -8 -15 -5 -8 4 -15 1 -15 -6 0 -7 -7 -10 -15 -6 -8 3 -15 1 -15 -5 0 -6 -7
-9 -15 -5 -8 3 -15 1 -15 -5 0 -6 -7 -9 -15 -5 -8 3 -15 1 -15 -5 0 -6 -7 -9
-15 -5 -8 3 -15 1 -15 -5 0 -6 -7 -9 -15 -5 -8 3 -15 1 -15 -5 0 -6 -7 -9 -15
-5 -8 3 -15 1 -15 -5 0 -6 -7 -9 -15 -5 -8 3 -15 1 -15 -5 0 -6 -7 -9 -15 -5
-8 3 -15 1 -15 -5 0 -6 -7 -9 -15 -5 -8 3 -15 1 -15 -5 0 -6 -7 -9 -15 -5 -8
3 -15 1 -15 -5 0 -6 -9 -8 -20 -4 -11 4 -20 2 -20 -4 0 -6 -7 -8 -15 -5 -8 4
-15 1 -15 -5 0 -6 -7 -8 -15 -5 -8 4 -15 1 -15 -5 0 -6 -7 -8 -15 -5 -8 4 -15
1 -15 -5 0 -6 -7 -8 -15 -5 -8 4 -15 1 -15 -5 0 -6 -7 -8 -15 -5 -8 4 -15 1
-15 -5 0 -6 -7 -8 -15 -5 -8 4 -15 1 -15 -5 0 -6 -7 -8 -15 -5 -8 4 -15 1 -15
-5 0 -6 -7 -8 -15 -5 -8 4 -15 1 -15 -5 0 -6 -7 -8 -15 -5 -8 4 -15 1 -15 -5
0 -6 -7 -8 -15 -5 -8 4 -15 1 -15 -5 0 -6 -7 -8 -15 -5 -8 4 -15 1 -15 -6 0
-7 -7 -10 -15 -6 -8 3 -15 1 -15 -5 0 -6 -7 -9 -15 -5 -8 3 -15 1 -15 -5 0 -6
-7 -9 -15 -5 -8 3 -15 1 -15 -5 0 -6 -7 -9 -15 -5 -8 3 -15 1 -15 -5 0 -6 -7
-9 -15 -5 -8 3 -15 1 -15 -5 0 -6 -7 -9 -15 -5 -8 3 -15 1 -15 -5 0 -6 -7 -9
-15 -5 -8 3 -15 1 -15 -5 0 -6 -7 -9 -15 -5 -8 3 -15 1 -15 -5 0 -6 -7 -9 -15
-5 -8 3 -15 1 -15 -5 0 -6 -7 -9 -15 -5 -8 3 -15 1 -15 -5 0 -6 -9 -8 -20 -4
-11 4 -20 2 -20 -4 0 -6 -7 -8 -15 -5 -8 4 -15 1 -15 -5 0 -6 -7 -8 -15 -5 -8
4 -15 1 -15 -5 0 -6 -7 -8 -15 -5 -8 4 -15 1 -15 -5 0 -6 -7 -8 -15 -5 -8 4
-15 1 -15 -5 0 -6 -7 -8 -15 -5 -8 4 -15 1 -15 -5 0 -6 -7 -8 -15 -5 -8 4 -15
1 -15 -5 0 -6 -7 -8 -15 -5 -8 4 -15 1 -15 -5 0 -6 -7 -8 -15 -5 -8 4 -15 1
-15 -5 0 -6 -7 -8 -15 -5 -8 4 -15 1 -15 -5 0 -6 -7 -8 -15 -5 -8 4 -15 1 -15
-6 0 -7 -7 -10 -15 -6 -8 3 -15 1 -15 -5 0 -6 -7 -9 -15 -5 -8 3 -15 1 -15 -5
0 -6 -7 -9 -15 -5 -8 3 -15 1 -15 -5 0 -6 -7 -9 -15 -5 -8 3 -15 1 -15 -5 0
-6 -7 -9 -15 -5 -8 3 -15 1 -15 -5 0 -6 -7 -9 -15 -5 -8 3 -15 1 -15 -5 0 -6
-7 -9 -15 -5 -8 3 -15 1 -15 -5 0 -6 -7 -9 -15 -5 -8 3 -15 1 -15 -4 0 -6 -5
-10 -11 -10 -5 0 -7 5 -4 10 3 6 1 10 -6 10 -7 0 -9 3 -6 7 4 3 -1 12 -11 20
-11 10 -12 12 -2 8 8 -4 4 3 -10 15 -14 12 -18 19 -10 15 8 -4 6 1 -4 9 -11 9
-16 16 -11 16 5 0 0 7 -11 16 -10 8 -12 13 -4 9 8 -4 4 3 -10 15 -14 12 -18
19 -10 15 8 -4 6 1 -4 9 -11 9 -16 16 -11 16 5 0 0 7 -11 16 -10 8 -12 13 -4
9 8 -4 4 3 -10 15 -14 12 -18 19 -10 15 8 -4 6 1 -4 9 -11 9 -16 16 -11 16 5
0 0 7 -11 16 -10 8 -13 12 -6 9 11 -6 12 -3 3 14 -7 11 -17 21 -23 21 -6 0 -8
3 -5 7 4 3 -1 12 -11 20 -11 10 -12 12 -2 8 10 -4 9 -2 -2 8 -10 8 -15 17 -11
20 3 4 0 7 -7 7 -7 0 -10 3 -7 7 4 3 -1 12 -11 20 -9 8 -11 11 -4 8 11 -6 12
-3 3 14 -7 11 -16 21 -22 21 -6 0 -7 5 -4 10 3 6 1 10 -5 10 -6 0 -8 4 -5 10
3 6 1 10 -5 10 -6 0 -8 5 -5 10 3 6 1 10 -5 10 -6 0 -8 5 -5 10 3 6 1 10 -5
10 -6 0 -8 5 -5 10 3 6 1 10 -5 10 -6 0 -8 5 -5 10 3 6 1 10 -5 10 -6 0 -8 5
-5 10 3 6 1 10 -5 10 -6 0 -8 5 -5 10 3 6 1 10 -5 10 -6 0 -8 5 -5 10 3 6 1
10 -5 10 -6 0 -8 5 -5 10 3 6 1 10 -5 10 -6 0 -8 5 -5 10 3 6 1 10 -5 10 -6 0
-8 5 -5 10 3 6 1 10 -5 10 -6 0 -8 5 -5 10 3 6 1 10 -5 10 -6 0 -8 5 -5 10 3
6 1 10 -5 10 -6 0 -8 5 -5 10 3 6 1 10 -5 10 -6 0 -8 4 -5 10 3 5 2 10 -4 10
-6 0 -7 7 -4 17 5 12 3 14 -7 8 -10 -6 -12 -4 -7 8 3 10 2 17 -4 17 -6 0 -7 4
-4 10 3 5 1 10 -5 10 -6 0 -8 4 -5 10 3 6 2 10 -4 10 -6 0 -8 7 -5 15 4 8 1
15 -6 15 -6 0 -8 5 -5 10 3 6 1 10 -5 10 -6 0 -8 5 -5 10 3 6 2 10 -4 10 -6 0
-8 7 -5 15 4 8 1 15 -6 15 -6 0 -8 5 -5 10 3 6 2 10 -4 10 -6 0 -8 7 -5 15 4
8 1 15 -6 15 -6 0 -8 5 -5 10 3 6 2 10 -4 10 -6 0 -8 7 -5 15 4 8 1 15 -6 15
-6 0 -8 4 -5 10 3 6 1 10 -5 10 -7 0 -10 7 -6 15 3 8 1 15 -4 15 -5 0 -7 7 -4
15 4 8 1 15 -6 15 -6 0 -8 4 -5 10 3 6 1 10 -5 10 -7 0 -10 7 -6 15 3 8 1 15
-4 15 -5 0 -7 7 -4 15 4 8 1 15 -5 15 -6 0 -8 7 -5 15 4 8 1 15 -5 15 -6 0 -8
7 -5 15 4 8 1 15 -6 15 -6 0 -8 5 -5 10 3 6 1 10 -5 10 -7 0 -9 8 -5 20 4 11
2 20 -4 20 -6 0 -8 7 -5 15 4 8 1 15 -5 15 -6 0 -8 7 -5 15 4 8 1 15 -6 15 -7
0 -10 7 -6 15 3 8 1 15 -5 15 -6 0 -8 9 -4 20 4 11 2 20 -4 20 -6 0 -8 7 -5
15 4 8 1 15 -6 15 -7 0 -9 8 -5 20 4 11 2 20 -4 20 -6 0 -8 7 -5 15 4 8 1 15
-6 15 -7 0 -9 8 -5 20 4 12 2 20 -5 20 -7 0 -9 8 -5 20 4 12 2 20 -5 20 -7 0
-9 8 -5 20 4 12 2 20 -5 20 -7 0 -9 8 -5 20 4 12 2 20 -5 20 -7 0 -9 8 -5 20
4 12 2 20 -5 20 -7 0 -9 8 -5 19 3 11 1 22 -5 26 -6 4 -8 15 -5 26 4 11 2 19
-5 19 -6 0 -8 10 -4 25 4 16 2 25 -5 25 -7 0 -9 9 -5 25 4 16 2 25 -5 25 -7 0
-9 9 -5 24 3 13 1 27 -5 31 -6 3 -8 17 -5 31 4 15 2 24 -6 24 -8 0 -9 10 -5
29 4 17 2 32 -5 36 -6 4 -8 16 -5 26 4 11 1 26 -5 34 -6 8 -9 23 -5 34 3 12 3
26 -2 33 -4 7 -9 29 -10 48 -1 19 -4 55 -7 80 -7 61 -15 161 -20 240 -2 36 -6
86 -9 113 -3 28 -2 45 4 42 5 -4 9 -1 9 5 0 7 7 10 15 6 8 -3 15 -1 15 5 0 6
7 9 15 5 8 -3 15 -1 15 5 0 6 7 9 15 5 8 -3 15 -1 15 5 0 6 7 9 15 5 8 -3 15
-1 15 5 0 6 9 8 20 4 11 -4 20 -2 20 4 0 6 7 8 15 5 8 -4 15 -1 15 5 0 6 7 8
15 5 8 -4 15 -1 15 5 0 6 7 8 15 5 8 -4 15 -1 15 5 0 6 7 8 15 5 8 -4 15 -1
15 5 0 6 7 8 15 5 8 -4 15 -1 15 5 0 6 7 8 15 5 8 -4 15 -1 15 5 0 6 7 8 15 5
8 -4 15 -1 15 5 0 6 7 8 15 5 8 -4 15 -1 15 5 0 6 7 8 15 5 8 -4 15 -1 15 6 0
7 7 10 15 6 8 -3 15 -1 15 5 0 6 7 9 15 5 8 -3 15 -1 15 5 0 6 7 9 15 5 8 -3
15 -1 15 5 0 6 7 9 15 5 8 -3 15 -1 15 5 0 6 7 9 15 5 8 -3 15 -1 15 5 0 6 7
9 15 5 8 -3 15 -1 15 5 0 6 7 9 15 5 8 -3 15 -1 15 5 0 6 7 9 15 5 8 -3 15 -1
15 5 0 6 7 9 15 5 8 -3 15 -1 15 5 0 6 7 9 15 6 8 -4 17 -2 20 3 3 5 12 7 20
3 8 -3 15 0 15 6 0 6 7 8 15 5 8 -4 15 -1 15 5 0 6 7 8 15 5 8 -4 15 -1 15 5
0 6 7 8 15 5 8 -4 15 -1 15 5 0 6 7 8 15 5 8 -4 15 -1 15 5 0 6 7 8 15 5 8 -4
15 -1 15 5 0 6 7 8 15 5 8 -4 15 -1 15 5 0 6 7 8 15 5 8 -4 15 -1 15 5 0 6 7
8 15 5 8 -4 15 -1 15 5 0 6 7 8 15 5 8 -4 15 -1 15 6 0 7 7 10 15 6 8 -3 15
-1 15 5 0 6 7 9 15 5 8 -3 15 -1 15 5 0 6 7 9 15 5 8 -3 15 -1 15 5 0 6 7 9
15 5 8 -3 15 -1 15 5 0 6 7 9 15 5 8 -3 15 -1 15 5 0 6 7 9 15 5 8 -3 15 -1
15 5 0 6 7 9 15 5 8 -3 15 -1 15 5 0 6 7 9 15 5 8 -3 15 -1 15 5 0 6 7 9 15 5
8 -3 15 -1 15 5 0 6 9 8 20 4 11 -4 20 -2 20 4 0 6 7 8 15 5 8 -4 15 -1 15 5
0 6 7 8 15 5 8 -4 15 -1 15 5 0 6 7 8 15 5 8 -4 15 -1 15 5 0 6 7 8 15 5 8 -4
15 -1 15 5 0 6 7 8 15 5 8 -4 15 -1 15 5 0 6 7 8 15 5 8 -4 15 -1 15 5 0 6 7
8 15 5 8 -4 15 -1 15 5 0 6 7 8 15 5 8 -4 15 -1 15 5 0 6 7 8 15 5 8 -4 15 -1
15 6 0 7 7 10 15 6 8 -3 15 -1 15 5 0 6 7 9 15 5 8 -3 15 -1 15 5 0 6 7 9 15
5 8 -3 15 -1 15 5 0 6 7 9 15 5 8 -3 15 -1 15 5 0 6 7 9 15 5 8 -3 15 -1 15 5
0 6 7 9 15 5 8 -3 15 -1 15 5 0 6 7 9 15 5 8 -3 15 -1 15 5 0 6 7 9 15 5 8 -3
15 -1 15 5 0 6 7 9 15 5 8 -3 15 -1 15 5 0 6 7 9 15 6 8 -4 17 -2 20 3 3 5 12
7 20 3 8 -3 15 0 15 6 0 6 7 8 15 5 8 -4 15 -1 15 5 0 6 6 8 14 5 10 -4 13 3
12 25 -1 16 -5 33 -8 37 -4 4 -5 17 -2 29 3 13 1 26 -5 30 -6 3 -8 17 -5 30 3
12 1 26 -5 30 -6 3 -8 17 -5 30 3 12 1 26 -6 30 -7 4 -9 18 -5 35 4 16 2 31
-5 35 -6 4 -8 20 -4 40 3 20 1 35 -5 40 -7 4 -9 20 -5 40 3 19 2 40 -2 47 -5
7 -10 33 -11 58 -1 25 -4 79 -6 120 -11 176 -5 763 9 890 10 95 15 146 17 175
1 17 6 36 11 43 4 7 5 24 2 37 -3 13 -1 27 5 30 6 4 7 19 4 35 -4 17 -2 31 5
35 7 4 9 18 6 31 -4 15 -2 24 5 24 7 0 9 9 5 24 -3 14 -1 28 5 31 6 4 8 18 5
31 -4 15 -2 24 5 24 7 0 9 9 5 25 -4 15 -2 25 4 25 7 0 9 8 5 19 -3 11 -1 22
5 26 6 4 8 15 5 26 -4 11 -2 19 5 19 7 0 10 8 7 20 -3 11 -1 23 4 26 6 3 7 14
4 25 -4 11 -2 19 5 19 7 0 9 8 5 20 -4 12 -2 20 5 20 7 0 9 8 5 20 -4 12 -2
20 5 20 7 0 10 7 7 15 -4 8 -2 17 3 20 5 3 7 12 3 20 -3 8 0 15 7 15 7 0 9 8
5 20 -4 12 -2 20 5 20 7 0 10 7 6 15 -3 8 -1 15 5 15 6 0 8 9 4 20 -4 11 -2
20 4 20 6 0 8 7 5 15 -4 8 -1 15 6 15 7 0 10 7 6 15 -3 8 -1 15 5 15 6 0 9 7
5 15 -3 8 -1 15 5 15 6 0 9 7 5 15 -3 8 -1 15 5 15 6 0 9 7 5 15 -3 8 -1 15 5
15 6 0 9 7 5 15 -3 8 -1 15 5 15 6 0 9 7 5 15 -3 8 -1 15 5 15 6 0 9 7 5 15
-3 8 -1 15 5 15 6 0 9 7 5 15 -3 8 -1 15 4 15 5 0 7 7 4 15 -4 8 -1 15 6 15 6
0 8 5 5 10 -3 6 -1 10 5 10 7 0 10 7 6 15 -3 8 -1 15 4 15 5 0 7 7 4 15 -4 8
-1 15 6 15 6 0 8 5 5 10 -3 6 -1 10 5 10 7 0 10 7 6 15 -3 8 -1 15 5 15 6 0 7
5 4 10 -3 6 -1 10 5 10 7 0 10 7 6 15 -3 8 -1 15 5 15 6 0 7 5 4 10 -3 6 -1
10 5 10 7 0 10 7 6 15 -3 8 -1 15 5 15 6 0 7 5 4 10 -3 6 -1 10 5 10 6 0 8 5
5 10 -3 6 -1 10 5 10 7 0 10 7 6 15 -3 8 -1 15 5 15 6 0 7 5 4 10 -3 6 -1 10
5 10 6 0 8 5 5 10 -3 6 -1 10 5 10 6 0 8 5 5 10 -3 6 -1 10 5 10 7 0 9 7 6 16
-4 10 -2 13 6 8 8 -5 9 -2 5 9 -3 10 -2 17 4 17 6 0 7 5 4 10 -3 6 -1 10 5 10
6 0 8 5 5 10 -3 6 -1 10 5 10 6 0 8 5 5 10 -3 6 -1 10 5 10 6 0 8 5 5 10 -3 6
-1 10 5 10 6 0 8 5 5 10 -3 6 -1 10 5 10 6 0 8 5 5 10 -3 6 -1 10 5 10 6 0 8
5 5 10 -3 6 -1 10 5 10 6 0 8 5 5 10 -3 6 -1 10 5 10 6 0 8 5 5 10 -3 6 -1 10
5 10 6 0 8 5 5 10 -3 6 -1 10 5 10 6 0 8 5 5 10 -3 6 -1 10 5 10 6 0 8 5 5 10
-3 6 -1 10 5 10 6 0 8 5 5 10 -3 6 -1 10 6 10 7 0 10 3 6 6 -3 3 3 14 14 25
11 11 17 24 14 29 -4 6 -1 10 5 10 6 0 8 5 5 10 -3 6 -1 10 6 10 7 0 9 3 6 7
-4 3 1 12 11 20 11 10 12 12 2 8 -10 -4 -9 -2 2 8 10 8 15 17 11 20 -3 4 -1 7
5 7 6 0 16 10 23 21 9 17 8 20 -3 14 -7 -3 -4 1 6 9 11 9 16 16 11 16 -5 0 0
7 11 16 10 8 12 13 4 9 -8 -4 -5 2 7 12 12 10 23 25 25 33 2 8 10 21 18 28 13
12 13 13 0 7 -8 -4 -4 3 10 15 14 12 18 19 10 15 -8 -4 -6 1 4 9 11 9 16 16
10 16 -5 0 -1 5 9 11 9 6 15 14 12 19 -3 4 2 11 11 14 8 3 13 10 10 15 -3 5 1
12 10 15 9 4 14 9 11 12 -3 4 4 15 16 26 12 11 15 17 7 13 -8 -4 -4 3 10 15
14 12 18 19 10 15 -8 -4 -4 3 10 15 14 12 18 19 10 15 -8 -4 -1 5 15 20 17 14
23 23 15 20 -8 -4 -4 3 10 16 14 13 21 22 15 19 -6 -3 1 6 15 20 14 14 21 23
15 20 -6 -3 1 6 15 20 14 14 21 23 15 20 -6 -3 3 8 20 23 16 16 23 26 15 22
-8 -4 -1 6 15 22 17 15 24 24 15 19 -8 -5 5 11 30 34 25 23 36 37 25 30 -11
-7 -2 4 21 26 22 21 33 35 24 29 -9 -5 7 13 35 40 28 28 42 43 30 35 -12 -8
-1 4 24 28 25 23 46 46 46 51 0 5 77 84 170 177 94 93 157 153 140 133 -16
-19 3 -1 44 40 41 42 68 67 60 55 -8 -11 8 2 35 30 27 28 43 42 36 31 -7 -11
7 0 30 25 23 25 37 36 30 25 -7 -11 5 -2 25 20 21 22 32 31 25 20 -7 -11 5 -2
25 20 21 22 32 31 25 20 -7 -11 2 -4 20 15 18 19 29 28 26 20 -4 -8 5 -1 19
15 15 17 24 23 20 15 -3 -8 6 -1 20 15 15 17 24 23 20 15 -3 -8 6 -1 20 15 15
17 24 23 20 15 -4 -8 3 -4 15 10 12 14 19 18 15 10 -3 -8 6 -1 20 15 15 17 24
23 20 15 -4 -8 3 -4 15 10 12 14 19 18 15 10 -4 -8 3 -4 15 10 12 14 19 18 15
10 -4 -8 3 -4 15 10 12 14 19 18 15 10 -4 -8 3 -4 15 10 12 14 19 18 15 10 -4
-8 3 -4 15 10 12 14 19 18 15 10 -4 -8 3 -4 15 10 12 14 19 18 15 10 -4 -8 1
-6 9 4 9 11 16 16 16 10 0 -5 7 0 15 10 8 11 15 16 15 11 0 -5 7 0 16 11 8 10
13 12 9 4 -4 -8 1 -6 9 4 9 11 16 16 16 11 0 -5 7 0 16 11 8 10 13 12 9 4 -4
-8 1 -6 9 4 9 11 16 16 16 11 0 -5 7 0 16 11 8 10 13 12 9 4 -4 -10 -2 -9 8 2
8 10 17 15 20 11 4 -3 7 0 7 7 0 7 3 10 7 7 3 -4 12 1 20 11 10 11 12 12 8 2
-4 -10 -2 -9 8 2 8 10 17 15 20 11 4 -3 7 -1 7 6 0 7 5 9 10 6 6 -3 10 -1 10
6 0 7 3 9 7 6 3 -4 12 1 20 11 8 9 11 11 8 4 -6 -11 -3 -12 14 -3 11 7 21 16
21 22 0 6 5 7 10 4 6 -3 10 -1 10 5 0 6 5 8 10 5 6 -3 10 -1 10 5 0 6 5 8 10
5 6 -3 10 -1 10 5 0 6 5 8 10 5 6 -3 10 -1 10 5 0 6 5 8 10 5 6 -3 10 -1 10 5
0 6 5 8 10 5 6 -3 10 -1 10 5 0 6 5 8 10 5 6 -3 10 -1 10 5 0 6 5 8 10 5 6 -3
10 -1 10 5 0 6 5 8 10 5 6 -3 10 -1 10 5 0 6 5 8 10 5 6 -3 10 -1 10 5 0 6 5
8 10 5 6 -3 10 -2 10 4 0 6 7 7 17 4 11 -4 14 -3 9 5 -5 8 -2 10 8 6 9 -3 16
-1 16 6 0 6 5 8 10 5 6 -3 10 -1 10 5 0 6 5 8 10 5 6 -3 10 -1 10 5 0 6 5 8
10 5 6 -3 10 -2 10 4 0 6 7 8 15 5 8 -4 15 -1 15 6 0 6 5 8 10 5 6 -3 10 -1
10 5 0 6 5 8 10 5 6 -3 10 -2 10 4 0 6 7 8 15 5 8 -4 15 -1 15 6 0 6 5 8 10 5
6 -3 10 -2 10 4 0 6 7 7 17 4 12 -5 14 -3 8 7 -6 10 -4 12 8 7 10 -3 17 -2 17
4 0 6 5 7 10 4 6 -3 10 -1 10 5 0 7 7 10 15 6 8 -3 15 -1 15 4 0 5 7 6 17 3
12 -5 14 -3 8 7 -6 10 -4 12 8 7 10 -3 17 -2 17 3 0 5 7 7 15 4 8 -4 15 -1 15
5 0 6 7 8 15 5 8 -4 15 -1 15 6 0 6 5 8 10 5 6 -3 10 -1 10 5 0 7 7 10 15 6 8
-3 15 -1 15 5 0 6 7 9 15 5 8 -3 15 -1 15 4 0 5 7 7 15 4 8 -4 15 -1 15 5 0 6
7 8 15 5 8 -4 15 -1 15 5 0 6 7 8 15 5 8 -4 15 -1 15 5 0 6 7 8 15 5 8 -4 15
-1 15 6 0 7 7 10 15 6 8 -3 15 -1 15 5 0 6 7 9 15 5 8 -3 15 -1 15 5 0 6 9 8
20 4 11 -4 20 -2 20 4 0 6 7 8 15 5 8 -4 15 -1 15 6 0 7 8 9 20 5 11 -4 20 -2
20 4 0 6 7 8 15 5 8 -4 15 -1 15 6 0 7 8 9 20 5 12 -4 20 -2 20 5 0 7 8 9 20
5 11 -4 20 -2 20 4 0 6 6 8 14 5 8 -3 17 0 21 5 3 6 11 9 16 5 5 -3 16 -1 23
5 7 6 21 9 30 5 9 -3 16 -1 16 6 0 7 8 9 20 5 12 -4 20 -2 20 5 0 7 8 9 19 5
11 -3 22 -1 26 5 4 6 15 8 25 5 10 -3 21 -1 25 5 4 6 15 8 25 5 10 -3 21 -1
25 5 4 6 15 8 25 5 10 -3 21 -1 25 5 3 5 17 7 31 4 15 -4 24 -2 24 6 0 8 10 9
30 5 20 -4 30 -3 30 5 0 8 10 9 29 5 17 -3 32 -2 36 4 3 6 17 8 30 5 13 -3 30
-2 37 3 7 4 27 9 43 10 17 2 50 5 75 7 126 14 169 17 215 17 28 -1 62 3 77 7
28 7 564 4 693 -4z m-8147 -7324 c1 -52 4 -100 17 -215 3 -27 5 -63 5 -79 0
-16 5 -35 11 -42 5 -7 7 -23 4 -37 -4 -14 -2 -28 5 -32 7 -4 9 -18 5 -35 -3
-16 -2 -31 4 -35 6 -3 8 -17 5 -30 -3 -12 -1 -26 5 -30 6 -3 8 -17 5 -31 -4
-15 -2 -24 5 -24 7 0 9 -9 5 -25 -4 -16 -2 -25 5 -25 7 0 9 -9 5 -25 -4 -16
-2 -25 5 -25 7 0 9 -9 5 -25 -4 -16 -2 -25 6 -25 7 0 9 -8 5 -20 -4 -12 -2
-20 5 -20 7 0 9 -8 5 -19 -3 -11 -1 -22 5 -26 6 -4 8 -15 5 -26 -4 -11 -2 -19
5 -19 7 0 9 -8 5 -20 -4 -12 -2 -20 5 -20 7 0 9 -8 5 -20 -4 -12 -2 -20 5 -20
7 0 10 -7 7 -15 -4 -8 -2 -17 3 -20 5 -3 7 -12 3 -20 -3 -8 0 -15 7 -15 7 0 9
-8 5 -20 -4 -11 -2 -20 4 -20 6 0 8 -7 5 -15 -4 -8 -1 -15 6 -15 7 0 9 -8 5
-20 -4 -11 -2 -20 4 -20 6 0 8 -7 5 -15 -4 -8 -1 -15 6 -15 7 0 10 -7 6 -15
-3 -8 -1 -15 5 -15 6 0 9 -7 5 -15 -3 -8 -1 -15 5 -15 6 0 9 -7 5 -15 -3 -8
-1 -15 5 -15 6 0 9 -7 5 -15 -3 -8 -1 -15 5 -15 6 0 9 -7 5 -15 -3 -8 -1 -15
5 -15 6 0 9 -7 5 -15 -3 -8 -1 -15 5 -15 6 0 9 -7 5 -15 -3 -8 -1 -15 4 -15 5
0 7 -7 4 -15 -4 -8 -1 -15 6 -15 6 0 8 -4 5 -10 -3 -5 -1 -10 5 -10 7 0 10 -7
6 -15 -3 -8 -1 -15 4 -15 5 0 7 -7 4 -15 -4 -8 -1 -15 6 -15 6 0 8 -4 5 -10
-3 -5 -2 -10 4 -10 6 0 8 -7 5 -15 -4 -8 -1 -15 6 -15 6 0 8 -4 5 -10 -3 -5
-2 -10 4 -10 6 0 8 -7 5 -15 -4 -8 -1 -15 6 -15 6 0 8 -4 5 -10 -3 -5 -2 -10
4 -10 6 0 7 -7 4 -17 -5 -12 -3 -14 7 -8 10 6 12 4 7 -8 -3 -10 -2 -17 4 -17
6 0 7 -4 4 -10 -3 -5 -2 -10 4 -10 6 0 7 -7 4 -17 -5 -12 -3 -14 7 -8 10 6 12
4 7 -8 -3 -10 -2 -17 4 -17 6 0 7 -4 4 -10 -3 -5 -1 -10 5 -10 6 0 8 -4 5 -10
-3 -5 -1 -10 5 -10 6 0 8 -4 5 -10 -3 -5 -2 -10 4 -10 6 0 7 -7 4 -17 -4 -11
-3 -14 5 -9 8 5 10 2 6 -8 -3 -9 -1 -16 6 -16 6 0 8 -4 5 -10 -3 -5 -1 -10 5
-10 6 0 8 -4 5 -10 -3 -5 -1 -10 5 -10 6 0 8 -4 5 -10 -3 -5 -1 -10 5 -10 6 0
8 -4 5 -10 -3 -5 -1 -10 5 -10 6 0 8 -4 5 -10 -3 -5 -1 -10 5 -10 6 0 8 -4 5
-10 -3 -5 -1 -10 5 -10 6 0 8 -4 5 -10 -3 -5 -1 -10 5 -10 6 0 8 -4 5 -10 -3
-5 -1 -10 6 -10 7 0 9 -3 6 -7 -4 -3 1 -12 11 -20 9 -8 11 -11 4 -8 -10 5 -9
-1 2 -24 9 -17 21 -31 27 -31 6 0 7 -4 4 -10 -3 -5 -1 -10 5 -10 6 0 8 -4 5
-10 -3 -5 -1 -10 5 -10 6 0 9 -4 5 -10 -3 -5 3 -18 14 -29 11 -11 17 -22 13
-25 -3 -3 0 -6 7 -6 7 0 10 -4 6 -10 -3 -5 3 -18 15 -30 11 -11 17 -20 13 -20
-4 0 2 -7 13 -16 10 -8 12 -13 4 -9 -13 6 -13 5 0 -7 8 -7 16 -20 18 -28 2 -8
13 -23 25 -33 12 -10 15 -16 7 -12 -10 4 -9 2 2 -8 10 -8 15 -17 11 -20 -3 -4
2 -9 11 -13 9 -3 13 -10 10 -15 -3 -5 -1 -9 5 -9 6 0 8 -7 4 -16 -3 -8 -12
-13 -19 -10 -8 3 -14 1 -14 -5 0 -6 -7 -9 -15 -5 -8 3 -15 1 -15 -5 0 -6 -7
-9 -15 -5 -8 3 -15 1 -15 -5 0 -6 -7 -9 -15 -5 -8 3 -15 1 -15 -5 0 -6 -9 -8
-20 -4 -11 4 -20 2 -20 -4 0 -6 -7 -8 -15 -5 -8 4 -15 1 -15 -5 0 -6 -7 -8
-15 -5 -8 4 -15 1 -15 -5 0 -6 -7 -8 -15 -5 -8 4 -15 1 -15 -5 0 -6 -7 -8 -15
-5 -8 4 -15 1 -15 -5 0 -6 -7 -8 -15 -5 -8 4 -15 1 -15 -5 0 -6 -7 -8 -15 -5
-8 4 -15 1 -15 -5 0 -6 -7 -8 -15 -5 -8 4 -15 1 -15 -5 0 -6 -7 -8 -15 -5 -8
4 -15 1 -15 -5 0 -6 -7 -8 -15 -5 -8 4 -15 1 -15 -5 0 -6 -7 -8 -15 -5 -8 4
-15 1 -15 -6 0 -7 -7 -10 -15 -6 -8 3 -15 1 -15 -5 0 -6 -7 -9 -15 -5 -8 3
-15 1 -15 -5 0 -6 -7 -9 -15 -5 -8 3 -15 1 -15 -5 0 -6 -7 -9 -15 -5 -8 3 -15
1 -15 -5 0 -6 -7 -9 -15 -5 -8 3 -15 1 -15 -5 0 -6 -7 -9 -15 -5 -8 3 -15 1
-15 -5 0 -6 -7 -9 -15 -5 -8 3 -15 1 -15 -5 0 -6 -7 -9 -15 -5 -8 3 -15 1 -15
-5 0 -6 -7 -9 -15 -5 -8 3 -15 1 -15 -5 0 -6 -7 -9 -15 -5 -8 3 -15 1 -15 -5
0 -6 -7 -9 -15 -5 -8 3 -15 1 -15 -5 0 -6 -9 -8 -20 -4 -11 4 -20 2 -20 -4 0
-6 -7 -8 -15 -5 -8 4 -15 1 -15 -5 0 -6 -7 -8 -15 -5 -8 4 -15 1 -15 -5 0 -6
-7 -8 -15 -5 -8 4 -15 1 -15 -5 0 -6 -7 -8 -15 -5 -8 4 -15 1 -15 -5 0 -6 -7
-8 -15 -5 -8 4 -15 1 -15 -5 0 -6 -7 -8 -15 -5 -8 4 -15 1 -15 -5 0 -6 -7 -8
-15 -5 -8 4 -15 1 -15 -5 0 -6 -7 -8 -15 -5 -8 4 -15 1 -15 -5 0 -6 -7 -8 -15
-5 -8 4 -15 1 -15 -5 0 -6 -7 -8 -15 -5 -8 4 -15 1 -15 -6 0 -7 -7 -10 -15 -6
-8 3 -15 1 -15 -5 0 -6 -7 -9 -15 -5 -8 3 -15 1 -15 -5 0 -6 -7 -9 -15 -5 -8
3 -15 1 -15 -5 0 -6 -7 -9 -15 -5 -8 3 -15 1 -15 -5 0 -6 -7 -9 -15 -5 -8 3
-15 1 -15 -5 0 -6 -7 -9 -15 -5 -8 3 -15 1 -15 -5 0 -6 -7 -9 -15 -5 -8 3 -15
1 -15 -5 0 -6 -7 -9 -15 -5 -8 3 -15 1 -15 -5 0 -6 -7 -9 -15 -5 -8 3 -15 1
-15 -5 0 -6 -7 -9 -15 -5 -8 3 -15 1 -15 -5 0 -6 -7 -9 -15 -5 -8 3 -15 1 -15
-5 0 -6 -9 -8 -20 -4 -11 4 -20 2 -20 -4 0 -6 -7 -8 -15 -5 -8 4 -15 1 -15 -5
0 -6 -7 -8 -15 -5 -8 4 -15 1 -15 -5 0 -6 -7 -8 -15 -5 -8 4 -15 1 -15 -5 0
-6 -7 -8 -15 -5 -8 4 -15 1 -15 -5 0 -6 -7 -8 -15 -5 -8 4 -15 1 -15 -5 0 -6
-7 -8 -15 -5 -8 4 -15 1 -15 -5 0 -6 -7 -8 -15 -5 -8 4 -15 1 -15 -5 0 -6 -7
-8 -15 -5 -8 4 -15 1 -15 -5 0 -6 -7 -8 -15 -5 -8 4 -15 1 -15 -5 0 -6 -7 -8
-15 -5 -8 4 -15 1 -15 -6 0 -7 -7 -10 -15 -6 -8 3 -15 1 -15 -5 0 -6 -7 -9
-15 -5 -8 3 -15 1 -15 -5 0 -6 -7 -9 -15 -5 -8 3 -15 1 -15 -5 0 -6 -7 -9 -15
-5 -8 3 -15 1 -15 -5 0 -6 -7 -9 -15 -5 -8 3 -15 1 -15 -5 0 -6 -7 -9 -15 -5
-8 3 -15 1 -15 -5 0 -6 -7 -9 -15 -5 -8 3 -15 1 -15 -5 0 -6 -7 -9 -15 -5 -8
3 -15 1 -15 -5 0 -6 -7 -9 -15 -5 -8 3 -15 1 -15 -5 0 -6 -7 -9 -15 -5 -8 3
-15 1 -15 -5 0 -6 -7 -9 -15 -5 -8 3 -15 1 -15 -5 0 -6 -9 -8 -20 -4 -11 4
-20 2 -20 -4 0 -6 -7 -8 -15 -5 -8 4 -15 1 -15 -5 0 -6 -7 -8 -15 -5 -8 4 -15
1 -15 -5 0 -6 -7 -8 -15 -5 -8 4 -15 1 -15 -5 0 -6 -7 -8 -15 -5 -8 4 -15 1
-15 -5 0 -6 -7 -8 -15 -5 -8 4 -15 1 -15 -5 0 -6 -7 -8 -15 -5 -8 4 -15 1 -15
-5 0 -6 -7 -8 -15 -5 -8 4 -15 1 -15 -5 0 -6 -7 -8 -15 -5 -8 4 -15 1 -15 -5
0 -6 -7 -8 -15 -5 -8 4 -15 1 -15 -5 0 -6 -7 -8 -15 -5 -8 4 -15 1 -15 -6 0
-7 -7 -10 -15 -6 -8 3 -15 1 -15 -5 0 -6 -7 -9 -15 -5 -8 3 -15 1 -15 -5 0 -6
-7 -9 -15 -5 -8 3 -15 1 -15 -5 0 -6 -7 -9 -15 -5 -8 3 -15 1 -15 -5 0 -6 -7
-9 -15 -5 -8 3 -15 1 -15 -5 0 -6 -7 -9 -15 -5 -8 3 -15 1 -15 -5 0 -6 -7 -9
-15 -5 -8 3 -15 1 -15 -5 0 -6 -7 -9 -15 -5 -8 3 -15 1 -15 -5 0 -6 -7 -9 -15
-5 -8 3 -15 1 -15 -5 0 -6 -7 -9 -15 -5 -8 3 -15 1 -15 -5 0 -6 -7 -9 -15 -6
-8 4 -17 2 -20 -3 -3 -5 -12 -7 -20 -3 -8 3 -15 0 -15 -6 0 -6 -7 -8 -15 -5
-8 4 -15 1 -15 -5 0 -6 -7 -8 -15 -5 -8 4 -15 1 -15 -5 0 -6 -7 -8 -15 -5 -8
4 -15 1 -15 -5 0 -6 -7 -8 -15 -5 -8 4 -15 1 -15 -5 0 -6 -7 -8 -15 -5 -8 4
-15 1 -15 -5 0 -6 -7 -8 -15 -5 -8 4 -15 1 -15 -5 0 -6 -7 -8 -15 -5 -8 4 -15
1 -15 -5 0 -6 -7 -8 -15 -5 -8 4 -15 1 -15 -5 0 -6 -7 -8 -15 -5 -8 4 -15 1
-15 -5 0 -6 -7 -8 -15 -5 -8 4 -15 1 -15 -6 0 -7 -7 -10 -15 -6 -8 3 -15 1
-15 -5 0 -6 -7 -9 -15 -5 -8 3 -15 1 -15 -5 0 -6 -7 -9 -15 -5 -8 3 -15 1 -15
-5 0 -6 -7 -9 -15 -5 -8 3 -15 1 -15 -5 0 -6 -7 -9 -15 -5 -8 3 -15 1 -15 -5
0 -6 -7 -9 -15 -5 -8 3 -15 1 -15 -5 0 -6 -7 -9 -15 -5 -8 3 -15 1 -15 -5 0
-6 -7 -9 -15 -5 -8 3 -15 1 -15 -5 0 -6 -7 -9 -15 -5 -8 3 -15 1 -15 -5 0 -6
-7 -9 -15 -5 -8 3 -15 1 -15 -5 0 -6 -7 -9 -15 -6 -8 4 -17 2 -20 -3 -3 -5
-12 -7 -20 -3 -8 3 -15 0 -15 -6 0 -6 -7 -8 -15 -5 -8 4 -15 1 -15 -5 0 -6 -7
-8 -15 -5 -8 4 -15 1 -15 -5 0 -6 -7 -8 -15 -5 -8 4 -15 1 -15 -5 0 -6 -7 -8
-15 -5 -8 4 -15 1 -15 -5 0 -6 -7 -8 -15 -5 -8 4 -15 1 -15 -5 0 -6 -7 -8 -15
-5 -8 4 -15 1 -15 -5 0 -6 -7 -8 -15 -5 -8 4 -15 1 -15 -5 0 -6 -7 -8 -15 -5
-8 4 -15 1 -15 -5 0 -6 -7 -8 -15 -5 -8 4 -15 1 -15 -5 0 -6 -7 -8 -15 -5 -8
4 -15 1 -15 -6 0 -7 -7 -10 -15 -6 -8 3 -15 1 -15 -5 0 -6 -7 -9 -15 -5 -8 3
-15 1 -15 -5 0 -6 -7 -9 -15 -5 -8 3 -15 1 -15 -5 0 -6 -7 -9 -15 -5 -8 3 -15
1 -15 -5 0 -6 -7 -9 -15 -5 -8 3 -15 1 -15 -5 0 -6 -7 -9 -15 -5 -8 3 -15 1
-15 -5 0 -6 -7 -9 -15 -5 -8 3 -15 1 -15 -5 0 -6 -7 -9 -15 -5 -8 3 -15 1 -15
-5 0 -6 -7 -9 -15 -5 -8 3 -15 1 -15 -5 0 -6 -7 -9 -15 -5 -8 3 -15 1 -15 -5
0 -6 -7 -9 -15 -6 -8 4 -17 2 -20 -3 -3 -5 -12 -7 -20 -3 -8 3 -15 0 -15 -6 0
-6 -7 -8 -15 -5 -8 4 -15 1 -15 -5 0 -6 -7 -8 -15 -5 -8 4 -15 1 -15 -5 0 -6
-7 -8 -15 -5 -8 4 -15 1 -15 -5 0 -6 -7 -8 -15 -5 -8 4 -15 1 -15 -5 0 -6 -7
-8 -15 -5 -8 4 -15 1 -15 -5 0 -6 -7 -8 -15 -5 -8 4 -15 1 -15 -5 0 -6 -7 -8
-15 -5 -8 4 -15 1 -15 -5 0 -6 -7 -8 -15 -5 -8 4 -15 1 -15 -5 0 -6 -7 -8 -15
-5 -8 4 -15 1 -15 -5 0 -6 -7 -8 -15 -5 -8 4 -15 1 -15 -6 0 -7 -7 -10 -15 -6
-8 3 -15 1 -15 -5 0 -6 -7 -9 -15 -5 -8 3 -15 1 -15 -5 0 -6 -7 -9 -15 -5 -8
3 -15 1 -15 -5 0 -6 -7 -9 -15 -6 -8 4 -17 2 -20 -3 -3 -5 -12 -7 -20 -3 -8 3
-15 0 -15 -7 0 -7 -8 -9 -19 -5 -11 3 -22 2 -25 -4 -3 -5 -15 -7 -26 -4 -12 3
-20 0 -20 -7 0 -8 -9 -10 -25 -6 -14 4 -31 3 -38 -1 -33 -20 -333 -20 -365 0
-7 5 -21 6 -31 2 -11 -3 -22 -1 -26 5 -4 6 -15 8 -26 5 -11 -4 -19 -2 -19 5 0
7 -8 9 -20 5 -12 -4 -20 -2 -20 5 0 7 -8 9 -20 5 -11 -4 -20 -2 -20 4 0 6 -7
8 -15 5 -8 -4 -15 -1 -15 6 0 7 -7 10 -15 6 -8 -3 -15 -1 -15 4 0 5 -7 7 -15
4 -8 -4 -15 -1 -15 6 0 6 -5 8 -10 5 -5 -3 -10 -1 -10 5 0 7 -7 10 -15 6 -8
-3 -15 -1 -15 5 0 6 -5 7 -10 4 -6 -3 -10 -1 -10 5 0 6 -5 8 -10 5 -5 -3 -10
-1 -10 5 0 7 -7 9 -16 6 -10 -4 -13 -2 -8 6 5 8 2 9 -10 5 -9 -4 -15 -3 -12 2
3 5 -1 12 -10 15 -10 4 -13 2 -9 -7 4 -6 0 -4 -8 5 -8 10 -17 15 -20 11 -4 -3
-7 0 -7 7 0 7 -3 10 -7 7 -3 -4 -12 1 -20 11 -10 11 -12 12 -8 2 4 -8 -3 -4
-15 10 -12 14 -19 18 -15 10 4 -8 -3 -4 -15 10 -12 14 -19 18 -15 10 4 -8 -3
-4 -15 10 -12 14 -19 18 -15 10 4 -8 -7 1 -25 20 -18 19 -26 26 -19 15 7 -11
-13 8 -44 42 -32 34 -86 88 -120 119 -34 31 -55 54 -47 50 8 -4 2 5 -15 19
-16 15 -23 24 -15 20 8 -3 5 2 -7 13 -12 11 -19 22 -16 26 3 3 -2 8 -11 12 -9
3 -13 10 -11 15 3 4 -3 17 -15 29 -11 11 -17 20 -13 20 4 0 -2 7 -13 16 -10 8
-13 12 -6 9 11 -6 12 -3 3 14 -7 11 -16 21 -22 21 -6 0 -7 5 -4 10 3 6 2 10
-4 10 -6 0 -7 7 -4 17 4 11 3 14 -5 9 -8 -5 -10 -2 -6 8 3 9 1 16 -6 16 -6 0
-8 5 -5 10 3 6 1 10 -5 10 -6 0 -8 5 -5 10 3 6 1 10 -5 10 -7 0 -10 7 -6 15 3
8 1 15 -4 15 -5 0 -7 7 -4 15 4 8 1 15 -5 15 -6 0 -8 7 -5 15 4 8 1 15 -5 15
-6 0 -8 7 -5 15 4 8 1 15 -6 15 -7 0 -9 8 -5 20 4 12 2 20 -5 20 -7 0 -9 8 -5
20 4 12 2 20 -5 20 -7 0 -9 8 -5 19 3 11 1 22 -5 26 -6 4 -8 15 -5 26 4 10 3
24 -2 31 -9 16 -14 80 -14 188 0 108 5 172 14 188 5 7 6 21 2 31 -3 11 -1 22
5 26 6 4 8 15 5 25 -3 10 -1 21 5 25 6 4 9 13 6 21 -3 7 -1 16 4 19 5 3 7 12
3 20 -3 8 0 15 7 15 7 0 10 7 6 15 -3 8 -1 15 5 15 6 0 9 7 5 15 -3 8 -1 15 5
15 6 0 9 7 5 15 -3 8 -1 15 4 15 5 0 7 7 4 15 -4 8 -1 15 6 15 6 0 8 5 5 10
-3 6 -2 10 4 10 6 0 7 7 4 17 -5 12 -3 14 7 8 10 -6 12 -4 7 8 -3 10 -2 17 4
17 6 0 7 5 4 10 -3 6 -1 10 5 10 6 0 8 4 5 10 -3 6 -1 10 5 10 6 0 8 5 5 10
-3 6 -2 10 4 10 6 0 15 10 22 21 9 17 8 20 -3 14 -7 -3 -4 1 6 9 11 9 16 16
11 16 -5 0 0 7 11 16 10 8 12 13 4 9 -8 -4 -4 3 10 15 14 12 18 19 10 15 -8
-4 -4 3 10 16 14 13 21 22 15 19 -6 -3 1 6 15 20 14 14 19 21 10 16 -8 -5 6
10 31 35 25 24 34 35 20 24 -14 -11 8 15 49 58 72 74 99 97 69 59 -8 -10 6 2
30 27 24 25 40 39 35 31 -5 -9 2 -4 15 10 13 14 20 18 16 10 -3 -8 6 -1 20 15
15 17 24 23 20 15 -6 -13 -5 -13 7 0 7 8 20 16 28 18 8 2 21 10 28 19 6 9 12
13 12 8 0 -5 7 0 16 11 8 10 12 13 9 6 -6 -11 -3 -12 14 -3 11 7 21 16 21 22
0 6 4 7 10 4 5 -3 10 -2 10 4 0 6 7 7 17 4 11 -4 14 -3 9 5 -5 8 -2 10 8 6 9
-3 16 -1 16 6 0 6 5 8 10 5 6 -3 10 -2 10 4 0 6 7 7 17 4 12 -5 14 -3 8 7 -6
10 -4 12 8 7 10 -3 17 -2 17 3 0 5 7 7 15 4 8 -4 15 -1 15 5 0 6 7 8 15 5 8
-4 15 -1 15 5 0 6 7 8 15 5 8 -4 15 -1 15 5 0 6 7 8 15 5 8 -4 15 -1 15 5 0 6
7 8 15 5 8 -4 15 -1 15 6 0 7 7 10 15 6 8 -3 15 -1 15 5 0 6 7 9 15 5 8 -3 15
-1 15 5 0 6 7 9 15 5 8 -3 15 -1 15 5 0 6 7 9 15 5 8 -3 15 -1 15 5 0 6 7 9
15 5 8 -3 15 -1 15 5 0 6 7 9 15 5 8 -3 15 -1 15 5 0 6 7 9 15 5 8 -3 15 -1
15 5 0 6 7 9 15 5 8 -3 15 -1 15 5 0 6 7 9 15 5 8 -3 15 -1 15 5 0 6 7 9 15 5
8 -3 15 -1 15 5 0 6 7 9 15 5 8 -3 15 -1 15 5 0 6 7 9 15 6 8 -4 17 -2 20 3 3
5 12 7 20 3 8 -3 15 0 15 6 0 6 7 8 15 5 8 -4 15 -1 15 5 0 6 7 8 15 5 8 -4
15 -1 15 5 0 6 7 8 15 5 8 -4 15 -1 15 5 0 6 7 8 15 5 8 -4 15 -1 15 5 0 6 7
8 15 5 8 -4 15 -1 15 5 0 6 7 8 15 5 8 -4 15 -1 15 5 0 6 7 8 15 5 8 -4 15 -1
15 5 0 6 7 8 15 5 8 -4 15 -1 15 5 0 6 7 8 15 5 8 -4 15 -1 15 5 0 6 7 8 15 5
8 -4 15 -1 15 5 0 6 7 8 15 5 8 -4 15 -1 15 6 0 7 7 10 15 6 8 -3 15 -1 15 5
0 6 7 9 15 5 8 -3 15 -1 15 5 0 6 7 9 15 5 8 -3 15 -1 15 5 0 6 7 9 15 5 8 -3
15 -1 15 5 0 6 7 9 15 5 8 -3 15 -1 15 5 0 6 7 9 15 5 8 -3 15 -1 15 5 0 6 7
9 15 5 8 -3 15 -1 15 5 0 6 7 9 15 5 8 -3 15 -1 15 5 0 6 7 9 15 5 8 -3 15 -1
15 5 0 6 7 9 15 5 8 -3 15 -1 15 5 0 6 7 9 15 5 8 -3 15 -1 15 5 0 6 9 8 20 4
11 -4 20 -2 20 4 0 6 7 8 15 5 8 -4 15 -1 15 5 0 6 7 8 15 5 8 -4 15 -1 15 5
0 6 7 8 15 5 8 -4 15 -1 15 5 0 6 7 8 15 5 8 -4 15 -1 15 5 0 6 7 8 15 5 8 -4
15 -1 15 5 0 6 7 8 15 5 8 -4 15 -1 15 5 0 6 7 8 15 5 8 -4 15 -1 15 5 0 6 7
8 15 5 8 -4 15 -1 15 5 0 6 7 8 15 5 8 -4 15 -1 15 5 0 6 7 8 15 5 8 -4 15 -1
15 5 0 6 7 8 15 5 8 -4 15 -1 15 5 0 6 7 8 15 5 8 -4 15 -1 15 6 0 7 7 10 15
6 8 -3 15 -1 15 5 0 6 7 9 15 5 8 -3 15 -1 15 5 0 6 7 9 15 5 8 -3 15 -1 15 5
0 6 7 9 15 5 8 -3 15 -1 15 5 0 6 7 9 15 5 8 -3 15 -1 15 5 0 6 7 9 15 5 8 -3
15 -1 15 5 0 6 7 9 15 5 8 -3 15 -1 15 5 0 6 7 9 15 5 8 -3 15 -1 15 5 0 6 7
9 15 5 8 -3 15 -1 15 5 0 6 7 9 15 5 8 -3 15 -1 15 5 0 6 7 9 15 5 8 -3 15 -1
15 5 0 6 9 8 20 4 11 -4 20 -2 20 4 0 6 7 8 15 5 8 -4 15 -1 15 5 0 6 7 8 15
5 8 -4 15 -1 15 5 0 6 7 8 15 5 8 -4 15 -1 15 5 0 6 7 8 15 5 8 -4 15 -1 15 5
0 6 7 8 15 5 8 -4 15 -1 15 5 0 6 7 8 15 5 8 -4 15 -1 15 5 0 6 7 8 15 5 8 -4
15 -1 15 5 0 6 7 8 15 5 8 -4 15 -1 15 5 0 6 7 8 15 5 8 -4 15 -1 15 5 0 6 7
8 15 5 8 -4 15 -1 15 5 0 6 7 8 15 5 8 -4 15 -1 15 5 0 6 7 8 15 5 8 -4 15 -1
15 6 0 7 7 10 15 6 8 -3 15 -1 15 5 0 6 7 9 15 5 8 -3 15 -1 15 5 0 6 7 9 15
5 8 -3 15 -1 15 5 0 6 7 9 15 5 8 -3 15 -1 15 5 0 6 7 9 15 5 8 -3 15 -1 15 5
0 6 7 9 15 5 8 -3 15 -1 15 5 0 6 7 9 15 5 8 -3 15 -1 15 5 0 6 7 9 15 5 8 -3
15 -1 15 5 0 6 7 9 15 5 8 -3 15 -1 15 5 0 6 7 9 15 5 8 -3 15 -1 15 5 0 6 7
9 15 5 8 -3 15 -1 15 5 0 6 9 8 20 4 11 -4 20 -2 20 4 0 6 7 8 15 5 8 -4 15
-1 15 5 0 6 7 8 15 5 8 -4 15 -1 15 5 0 6 7 8 15 5 8 -4 15 -1 15 5 0 6 7 8
15 5 8 -4 15 -1 15 5 0 6 7 8 15 5 8 -4 15 -1 15 5 0 6 7 8 15 5 8 -4 15 -1
15 5 0 6 7 8 15 5 8 -4 15 -1 15 5 0 6 7 8 15 5 8 -4 15 -1 15 5 0 6 7 8 15 5
8 -4 15 -1 15 5 0 6 7 8 15 5 8 -4 15 -1 15 5 0 6 7 8 15 5 8 -4 15 -1 15 5 0
6 7 8 15 5 8 -4 15 -1 15 6 0 7 7 10 15 6 8 -3 15 -1 15 5 0 6 7 9 15 5 8 -3
15 -1 15 5 0 6 7 9 15 5 8 -3 15 -1 15 5 0 6 7 9 15 5 8 -3 15 -1 15 5 0 6 7
9 15 5 8 -3 15 -1 15 5 0 6 7 9 15 5 8 -3 15 -1 15 5 0 6 7 9 15 5 8 -3 15 -1
15 5 0 6 7 9 15 5 8 -3 15 -1 15 5 0 6 7 9 15 5 8 -3 15 -1 15 5 0 6 7 9 15 5
8 -3 15 -1 15 5 0 6 7 9 15 5 8 -3 15 -1 15 5 0 6 9 8 20 4 11 -4 20 -2 20 4
0 6 7 8 15 5 8 -4 15 -1 15 5 0 6 7 8 15 5 8 -4 15 -1 15 5 0 6 7 8 15 5 8 -4
15 -1 15 5 0 6 7 8 15 5 8 -4 15 -1 15 5 0 6 7 8 15 5 8 -4 15 -1 15 5 0 6 7
8 15 5 8 -4 15 -1 15 5 0 6 7 8 15 5 8 -4 15 -1 15 5 0 6 7 8 15 5 8 -4 15 -1
15 5 0 6 7 8 15 5 8 -4 15 -1 15 5 0 6 7 8 15 5 8 -4 15 -1 15 5 0 6 7 8 15 5
8 -4 15 -1 15 6 0 7 7 10 15 6 8 -3 15 -1 15 5 0 6 7 9 15 5 8 -3 15 -1 15 5
0 6 7 9 15 5 8 -3 15 -1 15 5 0 6 7 9 15 5 8 -3 15 -1 15 5 0 6 7 9 15 5 8 -3
15 -1 15 5 0 6 7 9 15 5 8 -3 15 -1 15 5 0 6 7 9 15 5 8 -3 15 -1 15 5 0 6 7
9 15 5 8 -3 15 -1 15 5 0 6 7 9 15 5 8 -3 15 -1 15 5 0 6 7 9 15 5 8 -3 15 -1
15 5 0 6 7 9 15 5 8 -3 15 -1 15 5 0 6 7 9 15 5 8 -3 15 -1 15 5 0 6 9 8 20 4
11 -4 20 -2 20 4 0 6 7 8 15 5 8 -4 15 -1 15 5 0 6 7 8 15 5 8 -4 15 -1 15 5
0 6 7 8 15 5 8 -4 15 -1 15 5 0 6 7 8 15 5 8 -4 15 -1 15 5 0 6 7 8 15 5 8 -4
15 -1 15 5 0 6 7 8 15 5 8 -4 15 -1 15 5 0 6 7 8 15 5 8 -4 15 -1 15 5 0 6 7
8 15 5 8 -4 15 -1 15 5 0 6 7 8 15 5 8 -4 15 -1 15 5 0 6 7 8 15 5 8 -4 15 -1
15 5 0 6 7 8 15 5 8 -4 15 -1 15 6 0 7 7 10 15 6 8 -3 15 -1 15 5 0 6 7 9 15
5 8 -3 15 -1 15 5 0 6 7 9 15 5 8 -3 15 -1 15 4 0 5 8 8 19 7 16 -1 19 -10 19
-57z m-5093 -3620 c38 -38 67 -70 64 -70 -2 0 -36 32 -74 70 -38 39 -67 70
-64 70 2 0 36 -31 74 -70z"/>
<path d="M14370 14849 c-74 -4 -155 -11 -180 -15 -25 -4 -48 -7 -52 -6 -3 1
-53 -5 -110 -13 -57 -8 -125 -17 -152 -20 -27 -4 -57 -10 -66 -15 -10 -5 -20
-7 -22 -4 -3 2 -45 -4 -94 -16 -49 -11 -101 -22 -115 -24 -34 -6 -150 -35
-169 -43 -8 -3 -19 -7 -25 -8 -5 -1 -12 -3 -15 -4 -3 -1 -16 -4 -30 -7 -14 -2
-32 -7 -40 -11 -8 -3 -18 -7 -22 -8 -5 -2 -9 -3 -10 -4 -2 -2 -14 -4 -28 -6
-14 -2 -38 -9 -55 -16 -16 -7 -33 -13 -37 -14 -5 -2 -10 -4 -13 -5 -3 -1 -9
-4 -15 -5 -5 -1 -12 -4 -15 -5 -3 -1 -8 -3 -12 -4 -42 -8 -103 -30 -103 -37 0
-5 -3 -8 -7 -8 -5 1 -10 1 -13 -1 -3 -1 -16 -4 -30 -6 -13 -2 -27 -8 -30 -12
-3 -4 -14 -9 -25 -10 -11 -2 -22 -7 -25 -10 -3 -4 -14 -9 -25 -10 -11 -2 -23
-8 -26 -14 -3 -5 -9 -9 -13 -9 -15 3 -56 -12 -56 -20 0 -5 -3 -8 -7 -7 -16 3
-63 -15 -63 -24 0 -5 -4 -6 -10 -3 -5 3 -10 1 -10 -5 0 -6 -4 -9 -8 -6 -10 6
-303 -139 -312 -155 -4 -6 -10 -10 -14 -9 -11 4 -76 -33 -76 -43 0 -4 -4 -6
-8 -3 -5 3 -19 -4 -30 -15 -12 -10 -24 -18 -26 -17 -3 2 -16 -6 -28 -17 -13
-10 -24 -17 -25 -15 -1 3 -11 -3 -23 -12 -11 -10 -20 -14 -20 -10 0 4 -6 0
-13 -9 -7 -9 -16 -16 -20 -17 -15 -1 -197 -125 -197 -134 0 -5 -4 -7 -8 -4 -5
3 -23 -8 -41 -24 -18 -17 -37 -30 -42 -30 -5 0 -12 -7 -15 -15 -4 -8 -13 -15
-20 -15 -8 0 -17 -7 -20 -15 -4 -8 -12 -15 -20 -15 -7 0 -19 -9 -27 -20 -8
-11 -16 -17 -19 -14 -3 3 -15 -6 -26 -20 -10 -14 -22 -23 -25 -20 -2 3 -14 -6
-25 -20 -11 -15 -25 -26 -31 -26 -6 0 -20 -13 -33 -30 -12 -16 -27 -30 -34
-30 -7 0 -27 -18 -45 -40 -17 -21 -35 -38 -38 -37 -7 2 -366 -354 -366 -363 0
-4 -17 -21 -37 -39 -21 -18 -38 -37 -38 -43 0 -5 -14 -21 -30 -35 -17 -14 -29
-28 -26 -31 3 -2 -6 -13 -19 -24 -14 -11 -25 -23 -25 -27 0 -5 -16 -26 -35
-47 -19 -21 -35 -43 -35 -49 0 -5 -9 -16 -21 -23 -12 -7 -18 -16 -15 -19 3 -3
-5 -14 -17 -24 -12 -10 -19 -18 -15 -19 4 0 -6 -14 -22 -32 -16 -17 -27 -35
-24 -40 3 -4 1 -8 -4 -8 -9 0 -133 -182 -134 -197 -1 -4 -8 -13 -17 -20 -9 -7
-13 -13 -9 -13 4 0 1 -8 -7 -17 -8 -10 -15 -21 -15 -26 0 -4 -9 -17 -19 -29
-11 -11 -18 -25 -15 -30 3 -4 1 -8 -3 -8 -11 0 -47 -60 -36 -60 4 0 3 -4 -3
-8 -17 -12 -54 -79 -47 -85 3 -4 1 -7 -6 -7 -7 0 -10 -4 -7 -9 4 -5 2 -11 -3
-13 -13 -5 -111 -205 -104 -212 4 -3 1 -6 -6 -6 -7 0 -9 -4 -6 -10 3 -5 2 -10
-4 -10 -9 0 -37 -68 -33 -82 1 -5 -3 -8 -9 -8 -5 0 -7 -4 -4 -10 3 -5 2 -10
-2 -10 -7 0 -45 -88 -48 -110 0 -3 -6 -15 -13 -27 -7 -13 -10 -23 -7 -23 3 0
-1 -10 -10 -23 -8 -12 -16 -32 -18 -42 -1 -11 -6 -26 -10 -32 -5 -7 -5 -13 0
-13 4 0 3 -4 -3 -8 -11 -7 -75 -190 -80 -227 -1 -11 -3 -21 -4 -22 -2 -2 -3
-6 -5 -10 -1 -5 -5 -15 -8 -23 -4 -8 -9 -26 -11 -40 -3 -14 -6 -27 -7 -30 -1
-3 -3 -9 -4 -15 -1 -5 -5 -17 -8 -25 -9 -21 -38 -141 -41 -165 -1 -12 -5 -25
-8 -31 -4 -5 -9 -30 -13 -54 -10 -75 -13 -88 -19 -98 -3 -5 -8 -31 -12 -58 -6
-54 -9 -73 -24 -154 -5 -30 -12 -80 -14 -110 -3 -30 -11 -98 -18 -150 -17
-128 -17 -791 0 -920 14 -108 18 -139 26 -230 4 -36 9 -74 13 -85 3 -11 7 -29
9 -40 11 -91 15 -119 20 -127 3 -5 7 -23 9 -41 5 -38 24 -126 32 -147 3 -8 7
-19 8 -25 1 -5 3 -14 5 -20 1 -5 3 -14 4 -20 5 -34 30 -122 37 -131 5 -6 6
-14 2 -17 -3 -4 0 -14 8 -23 8 -10 13 -19 12 -21 -2 -1 -3 -4 -2 -5 0 -2 2
-14 4 -28 2 -14 9 -38 16 -55 7 -16 13 -33 14 -37 2 -5 4 -10 5 -13 1 -3 4 -9
5 -15 1 -5 4 -12 5 -15 1 -3 4 -9 5 -15 1 -5 4 -12 5 -15 1 -3 3 -8 4 -12 1
-5 6 -23 10 -40 4 -18 12 -33 17 -33 6 0 8 -3 5 -8 -2 -4 3 -23 11 -42 9 -19
18 -44 20 -55 2 -10 7 -22 11 -25 4 -3 9 -14 10 -25 2 -11 7 -22 10 -25 4 -3
9 -14 10 -25 2 -11 7 -22 10 -25 4 -3 8 -14 10 -25 2 -11 12 -28 24 -37 11
-10 16 -18 12 -18 -5 -1 1 -9 13 -19 12 -10 20 -21 17 -24 -3 -3 3 -12 15 -19
12 -7 21 -18 21 -25 0 -7 9 -18 20 -25 11 -7 20 -18 20 -25 0 -6 11 -20 25
-31 14 -11 25 -25 25 -31 0 -6 13 -20 30 -32 16 -12 27 -25 25 -30 -3 -4 13
-23 35 -43 22 -20 40 -40 40 -45 0 -5 39 -45 86 -88 47 -43 90 -88 95 -101 5
-13 13 -21 18 -18 5 3 46 -34 91 -84 45 -49 85 -88 89 -87 4 1 22 -15 40 -35
18 -21 36 -36 40 -33 4 2 18 -9 30 -26 12 -16 26 -27 30 -24 5 2 16 -6 25 -20
9 -14 20 -25 25 -25 5 0 26 -16 47 -35 21 -19 43 -35 49 -35 5 0 16 -9 23 -20
7 -12 17 -18 22 -15 6 3 10 1 10 -5 0 -6 7 -13 16 -17 9 -3 28 -17 42 -29 14
-13 31 -24 37 -24 7 0 16 -7 19 -16 3 -8 10 -13 15 -10 5 3 12 -1 15 -10 4 -9
9 -14 12 -11 3 2 17 -6 31 -19 14 -13 29 -21 33 -19 4 3 11 -2 14 -11 3 -8 10
-13 15 -10 5 3 12 -1 15 -10 3 -8 10 -12 16 -9 5 3 10 2 10 -3 0 -8 177 -118
189 -116 3 0 15 -8 25 -18 18 -17 25 -19 42 -17 4 0 10 -3 13 -8 11 -16 98
-62 105 -56 3 3 6 1 6 -6 0 -7 5 -9 10 -6 6 3 10 1 10 -5 0 -6 5 -8 10 -5 6 3
10 2 10 -4 0 -10 38 -27 53 -23 4 1 7 -3 7 -9 0 -5 5 -7 10 -4 6 3 10 1 10 -5
0 -6 5 -8 10 -5 6 3 10 2 10 -3 0 -10 89 -48 103 -44 4 1 7 -2 7 -6 0 -6 59
-34 80 -37 3 0 15 -6 28 -13 12 -7 22 -9 22 -5 0 4 4 3 8 -3 9 -13 92 -46 92
-36 0 4 4 1 8 -5 4 -7 19 -15 32 -17 14 -2 27 -5 30 -6 3 -2 8 -2 13 -1 4 0 7
-3 7 -8 0 -5 15 -13 33 -17 17 -4 35 -9 40 -10 4 -1 9 -3 12 -4 3 -1 10 -4 15
-5 6 -1 12 -4 15 -5 3 -1 10 -4 15 -5 6 -1 12 -4 15 -5 3 -1 10 -4 15 -5 6 -1
12 -4 15 -5 3 -1 8 -3 13 -5 4 -1 19 -7 34 -13 15 -6 38 -13 50 -15 13 -2 30
-7 38 -10 8 -4 24 -8 35 -10 11 -1 26 -6 33 -11 7 -4 16 -5 19 -2 3 3 11 2 17
-3 11 -8 106 -33 136 -36 9 0 20 -4 26 -7 5 -4 29 -9 51 -11 23 -3 46 -8 50
-10 5 -3 27 -8 48 -11 22 -3 60 -10 84 -16 24 -6 46 -8 49 -6 2 3 12 1 21 -3
9 -5 46 -12 81 -16 36 -4 76 -9 90 -10 67 -9 187 -23 200 -24 8 0 49 -3 90 -6
228 -20 579 -16 825 9 22 2 74 7 115 11 41 4 78 9 82 11 4 3 35 7 70 10 34 3
66 8 71 11 4 2 24 6 45 9 20 2 48 7 62 10 33 9 47 12 100 19 24 4 49 9 55 13
5 4 15 7 20 7 29 2 101 18 110 25 6 5 13 8 18 8 26 0 88 15 93 23 3 5 9 7 14
4 5 -3 21 0 37 6 15 7 38 14 51 16 12 2 35 9 50 15 15 6 30 12 35 13 4 2 9 4
12 5 3 1 10 4 15 5 6 1 12 4 15 5 3 1 10 4 15 5 6 1 12 4 15 5 3 1 10 4 15 5
6 1 11 3 13 4 1 2 12 4 25 7 12 2 39 11 60 20 20 10 46 19 57 21 10 2 22 8 26
14 3 6 10 10 15 9 14 -2 84 22 84 29 0 4 10 7 22 8 11 1 24 7 28 13 4 7 10 11
14 10 11 -2 76 24 76 30 0 4 6 7 14 7 22 0 326 153 326 164 0 6 5 7 10 4 6 -3
10 -1 10 4 0 6 3 10 8 9 12 -3 62 24 62 34 0 4 3 7 8 6 10 -4 115 56 136 77 9
9 16 14 16 10 0 -8 92 55 102 69 5 7 8 7 8 1 0 -5 7 -2 14 8 8 10 17 18 20 18
11 -2 86 52 86 61 0 5 4 7 8 4 5 -3 23 8 40 24 18 16 32 26 32 22 1 -4 9 3 19
15 10 12 21 20 24 17 3 -3 12 3 19 15 7 12 18 21 25 21 6 0 18 9 26 20 8 11
16 17 20 14 3 -3 12 3 19 15 7 12 18 21 25 21 6 0 20 11 31 25 11 14 25 25 31
25 6 0 20 13 32 30 12 16 26 27 30 25 4 -3 22 12 40 33 18 20 35 37 38 37 8 0
366 358 366 366 0 3 17 20 38 38 20 18 37 37 37 43 0 5 14 21 30 35 17 14 29
28 26 31 -3 2 6 13 19 24 14 11 25 25 25 31 0 7 9 18 20 25 11 7 20 18 20 25
0 7 9 18 21 25 12 7 18 16 15 19 -3 3 5 14 17 24 12 10 18 18 12 19 -5 0 1 7
13 16 12 8 20 19 17 24 -3 4 2 10 10 14 8 3 15 12 15 21 0 8 4 15 9 15 9 0 62
76 60 87 0 3 6 10 15 15 9 5 14 13 11 18 -3 4 2 11 11 14 8 3 13 10 10 15 -3
5 1 12 10 15 8 3 12 10 9 16 -3 5 -2 10 2 10 10 0 49 62 45 73 -1 4 2 7 8 7 8
0 37 46 42 67 1 5 10 17 20 27 10 11 18 23 18 28 0 15 4 23 22 42 17 18 19 25
17 42 0 4 3 10 9 13 16 11 82 137 75 144 -3 4 -1 7 6 7 7 0 9 5 6 10 -3 6 -1
10 5 10 6 0 8 5 5 10 -3 6 -1 10 5 10 6 0 8 5 5 10 -3 6 -2 10 3 10 10 0 68
130 64 143 -1 4 2 7 7 7 9 0 32 56 30 74 0 5 4 12 11 16 6 4 12 17 13 28 1 12
4 22 8 22 7 0 31 70 29 84 -1 5 3 12 9 15 6 4 13 18 15 31 2 14 5 27 6 30 2 3
2 8 1 13 0 4 3 7 8 7 5 0 13 15 17 33 4 17 9 35 10 40 1 4 3 9 4 12 1 3 4 10
5 15 1 6 4 12 5 15 1 3 4 10 5 15 1 6 4 12 5 15 1 3 4 10 5 15 1 6 4 12 5 15
1 3 3 8 5 13 1 4 7 19 13 34 6 15 13 38 15 50 2 13 7 30 10 38 4 8 8 24 10 35
2 11 7 27 10 35 8 19 48 178 52 205 1 11 5 27 8 35 7 17 28 121 33 165 3 16
13 81 24 143 10 62 22 143 26 180 3 37 8 85 10 107 25 277 30 549 14 765 -6
69 -13 157 -16 195 -3 39 -9 99 -15 135 -5 36 -12 81 -15 100 -5 38 -11 75
-18 118 -2 15 -7 43 -10 62 -16 100 -19 116 -24 125 -3 5 -7 19 -9 30 -5 32
-10 60 -13 65 -1 3 -3 10 -4 15 -10 61 -19 96 -26 100 -5 3 -7 12 -4 19 3 8 0
17 -5 21 -6 3 -9 10 -6 15 3 5 0 21 -7 37 -6 15 -11 31 -10 35 1 4 -3 20 -10
35 -6 15 -12 31 -13 36 -2 4 -3 8 -5 10 -1 1 -3 11 -4 22 -4 36 -49 160 -60
167 -6 4 -7 8 -2 8 5 0 4 6 -2 13 -6 6 -10 15 -10 20 -1 24 -15 67 -23 67 -5
0 -8 3 -7 8 4 10 -24 92 -31 92 -4 0 -7 10 -8 22 -1 11 -8 25 -15 29 -7 5 -10
9 -5 9 12 0 -22 60 -34 60 -6 0 -8 4 -4 9 3 5 -4 16 -15 24 -11 7 -17 16 -14
20 3 3 -3 12 -15 19 -12 7 -21 18 -21 25 0 6 -9 18 -20 26 -11 8 -17 16 -14
19 3 3 -6 15 -20 26 -15 11 -26 25 -26 30 0 6 -11 19 -25 30 -14 11 -25 24
-25 30 0 6 -13 22 -30 35 -16 14 -30 30 -30 36 0 5 -22 29 -50 53 -27 24 -50
48 -50 53 0 12 -238 251 -246 247 -3 -2 -23 17 -46 42 -22 25 -45 46 -51 46
-7 0 -25 16 -40 36 -16 19 -31 33 -34 30 -3 -3 -17 9 -30 25 -14 16 -28 28
-31 25 -2 -3 -14 6 -24 20 -11 14 -23 23 -26 20 -3 -3 -11 3 -19 14 -8 11 -20
20 -26 20 -7 0 -18 9 -25 21 -7 12 -16 18 -19 15 -3 -3 -14 5 -24 17 -10 12
-18 18 -19 13 0 -4 -9 2 -20 15 -10 13 -19 21 -20 17 0 -4 -14 6 -32 22 -17
16 -35 27 -39 25 -4 -3 -10 2 -13 11 -3 8 -10 13 -15 10 -5 -3 -12 1 -15 10
-4 9 -9 14 -12 11 -3 -2 -17 6 -31 19 -14 13 -29 21 -33 19 -4 -3 -11 2 -14
11 -3 8 -10 13 -15 10 -5 -3 -12 1 -15 10 -4 9 -9 14 -12 11 -4 -3 -15 3 -27
13 -11 11 -24 17 -29 14 -4 -3 -8 -1 -8 5 0 10 -132 88 -139 82 -2 -1 -7 1
-10 6 -11 17 -78 53 -84 46 -4 -3 -7 -1 -7 6 0 7 -4 10 -9 7 -5 -4 -11 -2 -13
3 -5 13 -225 121 -232 114 -3 -4 -6 -1 -6 6 0 7 -4 9 -10 6 -5 -3 -10 -2 -10
4 0 9 -68 37 -82 33 -5 -1 -8 2 -8 7 0 8 -41 23 -56 20 -4 0 -10 3 -13 8 -6 9
-105 52 -132 57 -8 2 -31 10 -51 20 -21 9 -48 18 -60 20 -13 3 -24 5 -25 7 -2
1 -7 3 -13 4 -5 1 -12 4 -15 5 -3 1 -9 4 -15 5 -5 1 -12 4 -15 5 -3 1 -9 4
-15 5 -5 1 -12 4 -15 5 -3 1 -8 3 -12 5 -5 1 -21 7 -38 14 -16 7 -41 14 -55
16 -14 2 -26 4 -27 6 -2 1 -6 2 -10 4 -5 1 -15 5 -23 8 -8 4 -24 8 -35 10 -11
1 -26 6 -33 11 -7 4 -16 5 -19 2 -3 -3 -11 -2 -17 3 -10 8 -100 32 -136 36 -8
1 -22 5 -30 8 -20 8 -214 45 -269 52 -23 3 -46 7 -50 9 -6 4 -87 15 -151 21
-14 1 -38 5 -55 8 -16 4 -64 9 -105 12 -366 27 -522 29 -780 14z m1871 -1364
c37 -13 70 -21 73 -18 3 4 6 1 6 -6 0 -7 5 -9 10 -6 6 3 10 1 10 -5 0 -6 4 -9
9 -6 5 4 11 3 13 -1 4 -11 82 -69 86 -64 7 6 61 -52 57 -60 -3 -4 5 -16 18
-26 13 -10 25 -22 26 -28 5 -16 43 -90 50 -95 3 -3 8 -12 9 -20 2 -8 11 -42
19 -75 17 -67 12 -278 -7 -302 -2 -2 -3 -6 -4 -10 -1 -5 -7 -18 -14 -30 -7
-13 -10 -23 -7 -23 4 0 -1 -7 -9 -16 -9 -8 -14 -20 -11 -25 4 -5 2 -9 -3 -9
-5 0 -15 -12 -23 -27 -8 -14 -41 -51 -73 -82 -33 -31 -68 -64 -78 -73 -10 -10
-21 -19 -25 -19 -18 -3 -79 -35 -85 -44 -4 -5 -8 -6 -8 -2 0 5 -6 5 -12 0 -7
-4 -24 -9 -37 -11 -14 -2 -32 -7 -42 -12 -23 -13 -3165 -13 -3188 0 -10 5 -31
11 -47 14 -16 2 -30 5 -31 5 -2 1 -6 1 -9 0 -4 0 -10 3 -13 8 -3 4 -28 19 -56
33 -50 26 -198 154 -188 164 3 3 -2 8 -11 12 -9 3 -14 9 -11 14 2 4 -4 16 -15
27 -10 12 -16 24 -13 27 4 3 2 6 -3 6 -5 0 -10 10 -11 22 -1 11 -6 24 -10 27
-4 3 -9 15 -11 26 -2 11 -6 27 -9 35 -15 39 -17 239 -2 270 1 3 3 10 4 15 2 6
4 13 5 18 1 4 3 10 4 15 1 4 7 17 14 30 7 12 10 22 7 22 -4 0 1 7 9 16 9 8 14
19 11 24 -3 5 -2 10 2 12 11 4 64 77 61 82 -4 6 44 56 54 56 10 0 91 61 96 73
2 4 8 5 13 1 5 -3 9 0 9 6 0 6 5 8 10 5 6 -3 10 -2 10 2 0 5 10 10 22 10 13 1
24 7 26 13 2 5 8 8 12 5 5 -3 24 1 42 9 28 12 263 14 1618 15 l1585 1 66 -25z
m-21 -1596 c8 -3 26 -11 40 -16 14 -6 28 -9 33 -6 4 2 7 1 7 -4 0 -7 49 -33
67 -35 4 -1 13 -8 20 -17 7 -9 13 -12 13 -7 0 6 6 1 14 -10 8 -10 18 -19 23
-19 10 -1 83 -74 83 -84 0 -3 10 -17 23 -31 13 -14 24 -28 25 -33 1 -4 8 -20
15 -35 8 -15 20 -45 27 -67 7 -22 15 -44 18 -50 9 -15 11 -43 11 -135 0 -96
-2 -120 -12 -137 -4 -6 -8 -23 -9 -37 -1 -14 -5 -26 -9 -26 -4 0 -10 -11 -13
-24 -3 -13 -21 -47 -40 -75 -19 -28 -33 -51 -32 -51 2 0 -17 -22 -43 -48 -25
-26 -48 -48 -51 -48 -3 0 -27 -15 -55 -32 -27 -18 -60 -35 -72 -38 -13 -4 -23
-10 -23 -16 0 -5 -4 -7 -9 -3 -5 3 -12 1 -16 -4 -3 -6 -12 -8 -19 -5 -8 3 -17
1 -20 -5 -4 -6 -186 -10 -528 -11 -287 0 -523 -2 -525 -3 -1 -2 -3 -780 -3
-1728 l0 -1725 -29 -76 c-16 -43 -26 -80 -23 -83 3 -3 1 -5 -4 -5 -5 0 -18
-17 -29 -37 -11 -21 -26 -43 -33 -48 -7 -6 -18 -21 -25 -35 -7 -14 -21 -29
-32 -35 -11 -6 -39 -24 -62 -41 -23 -17 -56 -37 -73 -44 -16 -7 -30 -16 -30
-20 0 -3 -6 -7 -12 -7 -7 -1 -42 -9 -78 -18 -50 -13 -88 -16 -165 -12 -104 6
-114 8 -155 24 -14 6 -28 9 -32 6 -5 -2 -8 0 -8 6 0 9 -24 21 -43 21 -4 0 -17
9 -29 20 -12 11 -27 20 -32 20 -6 0 -17 9 -24 20 -7 12 -24 25 -38 30 -14 6
-23 14 -20 18 2 4 -13 27 -34 50 -22 23 -39 43 -38 45 0 1 -10 22 -22 47 -13
25 -25 51 -26 58 -1 8 -6 21 -10 30 -4 9 -9 26 -12 37 -3 11 -7 800 -9 1753
l-3 1732 -513 2 c-563 1 -527 0 -544 11 -7 5 -17 6 -22 2 -5 -3 -12 -1 -16 5
-4 6 -11 8 -16 5 -5 -4 -9 -2 -9 3 0 6 -11 13 -24 16 -13 3 -47 22 -76 41 -29
19 -53 35 -55 35 -6 0 -85 83 -85 89 0 3 -11 18 -25 33 -14 15 -25 30 -25 33
0 3 -7 20 -17 38 -9 17 -18 37 -19 42 -1 6 -10 39 -19 74 -9 35 -17 91 -17
125 0 53 2 75 16 146 2 8 8 26 13 40 6 14 9 28 6 33 -2 4 1 7 6 7 6 0 11 5 11
11 0 6 18 38 40 71 22 33 40 62 40 63 0 6 57 59 76 72 11 7 42 26 69 42 28 16
57 36 65 43 8 7 16 11 18 9 1 -2 13 0 25 4 12 4 28 9 35 10 8 2 16 6 20 9 7 8
3212 2 3232 -5z"/>
<path d="M10254 14498 l-29 -33 33 29 c17 17 32 31 32 33 0 8 -8 1 -36 -29z"/>
<path d="M10935 6220 c66 -66 122 -120 125 -120 2 0 -49 54 -115 120 -66 66
-122 120 -125 120 -2 0 49 -54 115 -120z"/>
</g>
</svg>
